<svg version="1.1" id="Layer_1" xmlns="http://www.w3.org/2000/svg" xmlns:xlink="http://www.w3.org/1999/xlink" x="0px" y="0px"
	 width="100%" viewBox="0 0 316 316" enable-background="new 0 0 316 316" xml:space="preserve">
<path fill="#FFFFFF" opacity="1.000000" stroke="none" 
	d="
M152.000000,317.000000 
	C101.333359,317.000000 51.166714,317.000000 1.000054,317.000000 
	C1.000036,211.666748 1.000036,106.333481 1.000018,1.000167 
	C106.333214,1.000111 211.666428,1.000111 316.999725,1.000056 
	C316.999817,106.333160 316.999817,211.666321 316.999908,316.999756 
	C262.166656,317.000000 207.333328,317.000000 152.000000,317.000000 
M235.065308,194.878571 
	C235.065308,194.878571 235.072632,194.811386 235.330109,194.058853 
	C233.414536,193.343704 231.505432,192.057617 229.582001,192.035812 
	C225.916718,191.994278 223.685974,194.502365 223.403778,197.972153 
	C223.158737,200.985291 223.703247,204.154327 228.098816,204.811859 
	C230.052094,206.578232 231.818741,207.127365 233.790817,204.035370 
	C237.578369,202.910522 238.975296,200.715714 236.875412,196.243622 
	C236.263977,195.809631 235.652527,195.375641 235.065308,194.878571 
M174.159531,189.561768 
	C168.196640,185.764297 164.249756,180.631485 162.797043,173.173172 
	C179.766403,173.173172 196.074326,173.173492 212.382233,173.173065 
	C223.073105,173.172775 225.000885,170.833893 222.976593,160.283691 
	C222.789429,159.308304 222.513474,158.346146 222.222351,157.395126 
	C216.606979,139.051483 196.862503,128.088638 177.871765,132.762405 
	C158.793671,137.457672 146.533615,156.225708 150.372299,175.281647 
	C153.233887,189.487045 161.608765,199.398529 175.433212,203.748383 
	C188.732407,207.932983 201.074432,205.401672 211.682831,195.942276 
	C214.813065,193.151077 216.078461,190.010925 213.130280,186.390228 
	C210.609314,183.294220 207.223465,183.386444 203.548141,186.602982 
	C194.720016,194.329102 185.091949,194.799088 174.159531,189.561768 
M106.502594,156.851242 
	C110.828087,156.850006 115.157745,156.970306 119.478188,156.821930 
	C128.138962,156.524521 133.744873,150.813904 133.833542,142.209488 
	C133.915817,134.224808 133.887054,126.238403 133.841751,118.253136 
	C133.789490,109.039650 128.201401,103.317848 118.959724,103.175148 
	C110.976097,103.051865 102.987076,103.037819 95.004051,103.179314 
	C86.045479,103.338097 80.526260,109.026031 80.448502,118.028381 
	C80.379532,126.013321 80.378662,133.999817 80.448723,141.984741 
	C80.527710,150.986343 86.010017,156.556458 95.026512,156.832687 
	C98.516914,156.939606 102.013321,156.850815 106.502594,156.851242 
M149.034698,60.310715 
	C145.115463,63.239258 143.582077,67.093903 143.774094,72.012878 
	C144.039917,78.821922 143.812561,85.649246 143.848404,92.468468 
	C143.890213,100.425034 148.392975,105.498627 156.171188,105.784225 
	C163.645782,106.058685 171.145294,106.044571 178.621124,105.787384 
	C186.157898,105.528099 190.943298,100.554344 191.109100,93.004341 
	C191.273376,85.523666 191.293930,78.031761 191.082108,70.553154 
	C190.867935,62.991104 185.912399,58.278221 178.304489,58.169102 
	C171.153900,58.066547 163.996094,58.001862 156.851181,58.227886 
	C154.451218,58.303814 152.081131,59.324417 149.034698,60.310715 
M162.624023,258.803192 
	C167.568939,256.833496 169.678177,253.060944 169.647385,247.874527 
	C169.613846,242.222000 169.773880,236.564896 169.598450,230.917587 
	C169.418411,225.121704 166.296310,221.155090 160.638977,220.770050 
	C153.549393,220.287567 146.362793,220.359283 139.279602,220.941101 
	C134.004456,221.374420 131.109390,225.225677 131.018356,230.481705 
	C130.911835,236.631363 130.927811,242.785141 131.010529,248.935516 
	C131.094086,255.147018 134.702469,258.986847 140.850693,259.102844 
	C147.826843,259.234467 154.809326,259.029083 162.624023,258.803192 
M95.423668,179.976013 
	C94.918861,180.821243 93.998245,181.655106 93.974815,182.513474 
	C93.781410,189.597305 93.337006,196.715683 93.844025,203.760620 
	C94.118340,207.572189 97.549614,209.637573 101.384247,209.786545 
	C106.861115,209.999283 112.358948,210.009262 117.835449,209.792709 
	C122.623375,209.603363 125.825775,206.238281 125.968163,201.429947 
	C126.120613,196.281738 126.095039,191.123566 125.980385,185.973434 
	C125.859337,180.535706 122.741676,177.271271 117.300514,177.054459 
	C112.321884,176.856079 107.313087,176.766785 102.350662,177.109055 
	C100.185120,177.258438 98.102135,178.604599 95.423668,179.976013 
M216.766357,115.010223 
	C220.248230,115.005791 223.735947,115.126762 227.210495,114.965012 
	C231.499756,114.765327 233.979233,112.428932 234.115723,108.072319 
	C234.250641,103.765625 234.273621,99.446739 234.113510,95.141838 
	C233.942307,90.538414 231.240005,88.263596 226.748474,88.152840 
	C222.771561,88.054779 218.786850,88.028831 214.811844,88.160400 
	C209.996384,88.319771 207.578293,90.755714 207.388458,95.635765 
	C207.246765,99.278038 207.309372,102.930878 207.366348,106.577682 
	C207.460876,112.628403 209.495239,114.618111 216.766357,115.010223 
z"/>
<path fill="#205293" opacity="1.000000" stroke="none" 
	d="
M174.492340,189.746994 
	C185.091949,194.799088 194.720016,194.329102 203.548141,186.602982 
	C207.223465,183.386444 210.609314,183.294220 213.130280,186.390228 
	C216.078461,190.010925 214.813065,193.151077 211.682831,195.942276 
	C201.074432,205.401672 188.732407,207.932983 175.433212,203.748383 
	C161.608765,199.398529 153.233887,189.487045 150.372299,175.281647 
	C146.533615,156.225708 158.793671,137.457672 177.871765,132.762405 
	C196.862503,128.088638 216.606979,139.051483 222.222351,157.395126 
	C222.513474,158.346146 222.789429,159.308304 222.976593,160.283691 
	C225.000885,170.833893 223.073105,173.172775 212.382233,173.173065 
	C196.074326,173.173492 179.766403,173.173172 162.797043,173.173172 
	C164.249756,180.631485 168.196640,185.764297 174.492340,189.746994 
M208.539963,160.821747 
	C208.479996,159.489410 208.877991,157.894257 208.287979,156.866074 
	C203.321243,148.210693 195.730637,143.783401 185.751480,144.072403 
	C175.231522,144.377045 165.547592,152.086914 164.387665,160.845642 
	C178.846863,160.845642 193.277298,160.845642 208.539963,160.821747 
z"/>
<path fill="#702479" opacity="1.000000" stroke="none" 
	d="
M106.004791,156.851227 
	C102.013321,156.850815 98.516914,156.939606 95.026512,156.832687 
	C86.010017,156.556458 80.527710,150.986343 80.448723,141.984741 
	C80.378662,133.999817 80.379532,126.013321 80.448502,118.028381 
	C80.526260,109.026031 86.045479,103.338097 95.004051,103.179314 
	C102.987076,103.037819 110.976097,103.051865 118.959724,103.175148 
	C128.201401,103.317848 133.789490,109.039650 133.841751,118.253136 
	C133.887054,126.238403 133.915817,134.224808 133.833542,142.209488 
	C133.744873,150.813904 128.138962,156.524521 119.478188,156.821930 
	C115.157745,156.970306 110.828087,156.850006 106.004791,156.851227 
z"/>
<path fill="#446EAA" opacity="1.000000" stroke="none" 
	d="
M149.366043,60.111977 
	C152.081131,59.324417 154.451218,58.303814 156.851181,58.227886 
	C163.996094,58.001862 171.153900,58.066547 178.304489,58.169102 
	C185.912399,58.278221 190.867935,62.991104 191.082108,70.553154 
	C191.293930,78.031761 191.273376,85.523666 191.109100,93.004341 
	C190.943298,100.554344 186.157898,105.528099 178.621124,105.787384 
	C171.145294,106.044571 163.645782,106.058685 156.171188,105.784225 
	C148.392975,105.498627 143.890213,100.425034 143.848404,92.468468 
	C143.812561,85.649246 144.039917,78.821922 143.774094,72.012878 
	C143.582077,67.093903 145.115463,63.239258 149.366043,60.111977 
z"/>
<path fill="#E63C8A" opacity="1.000000" stroke="none" 
	d="
M162.206543,258.886688 
	C154.809326,259.029083 147.826843,259.234467 140.850693,259.102844 
	C134.702469,258.986847 131.094086,255.147018 131.010529,248.935516 
	C130.927811,242.785141 130.911835,236.631363 131.018356,230.481705 
	C131.109390,225.225677 134.004456,221.374420 139.279602,220.941101 
	C146.362793,220.359283 153.549393,220.287567 160.638977,220.770050 
	C166.296310,221.155090 169.418411,225.121704 169.598450,230.917587 
	C169.773880,236.564896 169.613846,242.222000 169.647385,247.874527 
	C169.678177,253.060944 167.568939,256.833496 162.206543,258.886688 
z"/>
<path fill="#B01987" opacity="1.000000" stroke="none" 
	d="
M95.702667,179.691635 
	C98.102135,178.604599 100.185120,177.258438 102.350662,177.109055 
	C107.313087,176.766785 112.321884,176.856079 117.300514,177.054459 
	C122.741676,177.271271 125.859337,180.535706 125.980385,185.973434 
	C126.095039,191.123566 126.120613,196.281738 125.968163,201.429947 
	C125.825775,206.238281 122.623375,209.603363 117.835449,209.792709 
	C112.358948,210.009262 106.861115,209.999283 101.384247,209.786545 
	C97.549614,209.637573 94.118340,207.572189 93.844025,203.760620 
	C93.337006,196.715683 93.781410,189.597305 93.974815,182.513474 
	C93.998245,181.655106 94.918861,180.821243 95.702667,179.691635 
z"/>
<path fill="#E73D8B" opacity="1.000000" stroke="none" 
	d="
M216.309494,115.010178 
	C209.495239,114.618111 207.460876,112.628403 207.366348,106.577682 
	C207.309372,102.930878 207.246765,99.278038 207.388458,95.635765 
	C207.578293,90.755714 209.996384,88.319771 214.811844,88.160400 
	C218.786850,88.028831 222.771561,88.054779 226.748474,88.152840 
	C231.240005,88.263596 233.942307,90.538414 234.113510,95.141838 
	C234.273621,99.446739 234.250641,103.765625 234.115723,108.072319 
	C233.979233,112.428932 231.499756,114.765327 227.210495,114.965012 
	C223.735947,115.126762 220.248230,115.005791 216.309494,115.010178 
z"/>
<path fill="#4B73A7" opacity="1.000000" stroke="none" 
	d="
M228.015228,204.081573 
	C223.703247,204.154327 223.158737,200.985291 223.403778,197.972153 
	C223.685974,194.502365 225.916718,191.994278 229.582001,192.035812 
	C231.505432,192.057617 233.414536,193.343704 234.839386,194.586151 
	C232.618652,196.206299 230.888626,197.299149 229.158600,198.391998 
	C229.654388,198.974335 230.150162,199.556686 230.748520,200.330353 
	C230.851089,200.521667 230.979843,200.936295 230.725067,200.973618 
	C230.297089,201.296402 230.123886,201.581863 229.639862,201.989670 
	C228.891098,202.768539 228.453171,203.425049 228.015228,204.081573 
z"/>
<path fill="#DDE5EE" opacity="1.000000" stroke="none" 
	d="
M230.645950,200.139038 
	C230.150162,199.556686 229.654388,198.974335 229.158600,198.391998 
	C230.888626,197.299149 232.618652,196.206299 234.710663,194.962418 
	C235.072632,194.811386 235.065308,194.878571 234.983673,195.241577 
	C235.583145,196.065445 236.264236,196.526306 236.945343,196.987167 
	C238.975296,200.715714 237.578369,202.910522 233.401855,203.645584 
	C232.223923,202.216873 231.434937,201.177948 230.645950,200.139038 
z"/>
<path fill="#D7E0EB" opacity="1.000000" stroke="none" 
	d="
M230.748520,200.330353 
	C231.434937,201.177948 232.223923,202.216873 233.021576,203.655792 
	C231.818741,207.127365 230.052094,206.578232 228.057022,204.446716 
	C228.453171,203.425049 228.891098,202.768539 229.673706,202.267624 
	C230.197495,202.661804 230.376633,202.900375 230.555786,203.138931 
	C230.697159,202.404724 230.838501,201.670517 230.979858,200.936295 
	C230.979843,200.936295 230.851089,200.521667 230.748520,200.330353 
z"/>
<path fill="#4B73A7" opacity="1.000000" stroke="none" 
	d="
M236.910370,196.615387 
	C236.264236,196.526306 235.583145,196.065445 234.971573,195.273132 
	C235.652527,195.375641 236.263977,195.809631 236.910370,196.615387 
z"/>
<path fill="#F7F9FB" opacity="1.000000" stroke="none" 
	d="
M208.123856,160.833694 
	C193.277298,160.845642 178.846863,160.845642 164.387665,160.845642 
	C165.547592,152.086914 175.231522,144.377045 185.751480,144.072403 
	C195.730637,143.783401 203.321243,148.210693 208.287979,156.866074 
	C208.877991,157.894257 208.479996,159.489410 208.123856,160.833694 
z"/>
<path fill="#DDE5EE" opacity="1.000000" stroke="none" 
	d="
M230.725067,200.973618 
	C230.838501,201.670517 230.697159,202.404724 230.555786,203.138931 
	C230.376633,202.900375 230.197495,202.661804 229.984528,202.145279 
	C230.123886,201.581863 230.297089,201.296402 230.725067,200.973618 
z"/>
</svg>