<svg version="1.1" id="Layer_1" xmlns="http://www.w3.org/2000/svg" xmlns:xlink="http://www.w3.org/1999/xlink" x="0px" y="0px"
	 width="100%" viewBox="0 0 200 200" enable-background="new 0 0 200 200" xml:space="preserve">
<path fill="#FEFEFD" opacity="1.000000" stroke="none" 
	d="
M1.000001,118.000000 
	C1.000000,79.087234 1.000000,40.174469 1.000000,1.000000 
	C27.020309,1.000000 53.041496,1.000000 79.520737,1.385545 
	C78.649780,2.346485 77.348190,3.001317 75.983208,3.472501 
	C74.862190,3.859468 72.816277,3.807360 72.678017,4.339195 
	C72.381233,5.480892 73.051094,6.873868 73.072433,8.418042 
	C58.593838,14.899221 48.766506,24.910618 45.240196,40.475697 
	C52.660233,41.688381 53.878132,40.397797 57.454849,34.580128 
	C60.690632,29.316999 64.681892,23.932364 69.630066,20.417328 
	C84.768150,9.663676 101.770111,8.571343 119.129219,13.949883 
	C137.876678,19.758591 151.344238,40.583836 148.571762,58.965790 
	C146.897171,59.244175 145.117599,59.540016 143.239975,59.388168 
	C143.141922,53.866184 143.141922,48.791885 143.141922,43.380310 
	C132.530975,43.595661 122.867699,44.087372 114.253990,48.971935 
	C109.464401,51.687962 105.279015,55.469479 100.519196,58.795044 
	C99.814011,58.839565 99.410957,58.859825 99.003532,58.535782 
	C97.840897,57.048786 96.800049,55.747814 95.506149,54.787964 
	C82.974602,45.491695 68.687813,43.346275 53.473484,43.840546 
	C30.452150,44.588444 10.945329,60.050552 6.245391,82.323189 
	C3.954216,93.180870 4.853618,104.711823 4.006597,116.087433 
	C2.802942,116.824562 1.901473,117.412285 1.000001,118.000000 
z"/>
<path fill="#FDFDFB" opacity="1.000000" stroke="none" 
	d="
M75.000000,201.000000 
	C74.555557,201.000000 74.111107,201.000000 73.326126,200.632843 
	C69.850906,197.307495 66.757889,194.302261 63.532608,191.446396 
	C63.094494,191.058487 61.992550,191.389511 61.200943,191.437088 
	C58.343388,191.608765 55.472004,192.035370 52.638992,191.852417 
	C51.717522,191.792908 50.088245,190.084106 50.167107,189.262558 
	C50.572014,185.044403 51.428139,180.869583 52.406307,176.882080 
	C55.907784,180.429321 58.786526,184.212921 62.409126,187.045013 
	C80.846115,201.458878 114.262589,203.271683 135.350327,191.416016 
	C146.862442,184.943802 154.072006,175.400345 157.314819,162.571396 
	C149.728134,161.388367 147.980759,162.414474 145.131546,168.139984 
	C143.523849,171.370667 141.579651,174.583237 139.165146,177.238480 
	C125.073219,192.735352 97.294182,196.735062 76.792183,186.429504 
	C61.664909,178.825607 51.017731,159.435608 53.630299,143.586472 
	C55.310909,143.586472 57.086758,143.586472 58.924431,144.001358 
	C59.029053,148.411194 58.824512,152.433395 59.259773,156.385117 
	C59.396973,157.630798 61.455898,159.810806 62.283661,159.658005 
	C71.027016,158.044250 79.918503,156.704178 88.311287,153.912262 
	C93.605438,152.151123 98.124542,148.060074 103.211128,145.262375 
	C105.682220,147.201736 107.807526,149.101257 110.205086,150.550323 
	C126.467041,160.378906 143.892563,161.561462 161.994537,157.681412 
	C162.461029,163.213867 157.281006,167.880692 160.696609,173.356705 
	C160.931168,173.732788 159.790863,175.607819 158.987732,175.874039 
	C156.152237,176.813980 154.778107,178.466309 154.573746,181.501068 
	C154.495895,182.657211 153.392517,184.615234 152.579727,184.711243 
	C146.806458,185.393295 145.064575,193.173050 138.483963,192.553864 
	C137.716995,192.481705 136.486420,195.156296 135.834564,196.710114 
	C135.282837,198.025314 135.258011,199.561569 135.000000,201.000000 
	C116.645775,201.000000 98.291542,201.000000 79.408234,200.653076 
	C77.190262,198.324432 75.838432,198.227051 75.000000,201.000000 
z"/>
<path fill="#FFFFFF" opacity="1.000000" stroke="none" 
	d="
M52.126640,176.679611 
	C51.428139,180.869583 50.572014,185.044403 50.167107,189.262558 
	C50.088245,190.084106 51.717522,191.792908 52.638992,191.852417 
	C55.472004,192.035370 58.343388,191.608765 61.200943,191.437088 
	C61.992550,191.389511 63.094494,191.058487 63.532608,191.446396 
	C66.757889,194.302261 69.850906,197.307495 72.992790,200.632843 
	C49.076889,201.000000 25.153778,201.000000 1.000000,201.000000 
	C1.000000,179.646332 1.000000,158.291824 1.408940,136.468689 
	C8.224099,135.388763 9.322342,139.723419 9.374228,144.392380 
	C12.238786,144.996338 14.618897,145.498169 16.999004,146.415451 
	C16.022940,151.174362 20.114353,152.253708 21.784855,154.870895 
	C26.193001,161.777176 32.316383,161.166260 38.783993,161.060028 
	C40.896564,161.025345 43.020172,161.662628 45.345520,162.279999 
	C47.743755,167.271469 49.935200,171.975540 52.126640,176.679611 
M41.595768,171.068832 
	C41.870422,171.657761 42.145077,172.246689 42.419731,172.835617 
	C43.216789,171.851486 44.013847,170.867355 44.810905,169.883209 
	C44.492821,169.634125 44.174736,169.385025 43.856647,169.135925 
	C43.240425,169.604446 42.624203,170.072968 41.595768,171.068832 
M42.524944,165.626022 
	C42.470211,165.839447 42.415482,166.052872 42.360752,166.266296 
	C42.495358,166.129135 42.629959,165.991974 42.524944,165.626022 
z"/>
<path fill="#FFFFFF" opacity="1.000000" stroke="none" 
	d="
M128.000000,1.000000 
	C152.257050,1.000000 176.514099,1.000000 201.000000,1.000000 
	C201.000000,23.020367 201.000000,45.041523 200.666260,67.531464 
	C199.887527,68.000679 199.442551,68.001122 198.703705,67.855064 
	C197.274261,66.806526 196.138657,65.904480 194.671005,65.001480 
	C193.896225,64.999046 193.453506,64.997574 192.953384,64.651611 
	C192.263794,62.871464 191.631592,61.435806 191.316925,59.956303 
	C191.423386,58.815693 191.540680,57.467155 190.932938,56.674545 
	C189.663849,55.019344 187.713120,53.852726 186.588074,52.129204 
	C184.941101,49.606129 182.935349,48.490845 179.644836,48.995605 
	C178.526443,48.326973 177.761993,47.663807 177.266693,46.775711 
	C177.225159,40.498798 176.342239,39.612778 171.748291,40.994865 
	C171.498856,40.996506 171.000000,40.997597 170.709778,40.703060 
	C167.967209,40.272144 165.516251,40.099724 163.062256,40.007523 
	C159.008469,39.855225 157.205551,36.897076 158.541977,33.039581 
	C159.319809,30.794388 159.534027,28.353931 160.140625,25.946804 
	C160.185837,25.927607 160.092270,25.962936 159.609955,25.998188 
	C157.985214,25.653397 156.375854,25.685974 155.579025,24.897449 
	C152.439056,21.790211 152.181351,15.389360 145.537827,16.311676 
	C145.434967,16.325956 145.189926,15.782975 145.116714,15.474984 
	C143.681747,9.438606 138.164154,8.578017 133.628113,7.196493 
	C130.059372,6.109584 127.979591,4.815421 128.000000,1.000000 
z"/>
<path fill="#FFFFFF" opacity="1.000000" stroke="none" 
	d="
M135.468658,201.000000 
	C135.258011,199.561569 135.282837,198.025314 135.834564,196.710114 
	C136.486420,195.156296 137.716995,192.481705 138.483963,192.553864 
	C145.064575,193.173050 146.806458,185.393295 152.579727,184.711243 
	C153.392517,184.615234 154.495895,182.657211 154.573746,181.501068 
	C154.778107,178.466309 156.152237,176.813980 158.987732,175.874039 
	C159.790863,175.607819 160.931168,173.732788 160.696609,173.356705 
	C157.281006,167.880692 162.461029,163.213867 162.307831,157.561096 
	C163.068710,156.935715 163.501587,156.824402 164.110870,157.031738 
	C165.126328,157.872482 165.934021,158.455246 166.809311,158.907043 
	C173.691284,162.459412 174.767548,162.182526 179.296829,155.954102 
	C179.646347,155.473465 180.374359,155.276566 180.907639,154.919693 
	C186.612839,151.101654 190.050766,145.754471 192.192902,139.265289 
	C193.555313,135.138199 195.998154,131.545761 201.000000,131.000000 
	C201.000000,154.258026 201.000000,177.516052 201.000000,201.000000 
	C179.312958,201.000000 157.625137,201.000000 135.468658,201.000000 
z"/>
<path fill="#FDFDFC" opacity="1.000000" stroke="none" 
	d="
M127.533882,1.000000 
	C127.979591,4.815421 130.059372,6.109584 133.628113,7.196493 
	C138.164154,8.578017 143.681747,9.438606 145.116714,15.474984 
	C145.189926,15.782975 145.434967,16.325956 145.537827,16.311676 
	C152.181351,15.389360 152.439056,21.790211 155.579025,24.897449 
	C156.375854,25.685974 157.985214,25.653397 159.610626,25.999054 
	C160.000000,26.000000 160.001831,26.001331 160.001831,26.001331 
	C159.534027,28.353931 159.319809,30.794388 158.541977,33.039581 
	C157.205551,36.897076 159.008469,39.855225 163.062256,40.007523 
	C165.516251,40.099724 167.967209,40.272144 170.742340,40.989777 
	C171.491684,41.878296 171.918228,42.185562 172.344788,42.492825 
	C172.229095,41.992958 172.113403,41.493088 171.997711,40.993221 
	C176.342239,39.612778 177.225159,40.498798 176.906189,46.736053 
	C174.386612,46.819397 171.372223,41.896072 170.578644,48.082607 
	C167.182419,47.291355 164.174454,46.577175 160.874817,45.915688 
	C159.776871,45.974888 158.970612,45.981388 158.057541,45.612854 
	C155.892929,36.530094 152.271988,28.626944 146.287903,21.851583 
	C137.357178,11.739951 125.568825,7.225962 112.881653,4.048057 
	C112.950188,2.742855 112.975090,1.871427 113.000000,1.000000 
	C117.689255,1.000000 122.378510,1.000000 127.533882,1.000000 
z"/>
<path fill="#FDFDFB" opacity="1.000000" stroke="none" 
	d="
M201.000000,130.531342 
	C195.998154,131.545761 193.555313,135.138199 192.192902,139.265289 
	C190.050766,145.754471 186.612839,151.101654 180.907639,154.919693 
	C180.374359,155.276566 179.646347,155.473465 179.296829,155.954102 
	C174.767548,162.182526 173.691284,162.459412 166.809311,158.907043 
	C165.934021,158.455246 165.126328,157.872482 164.367401,156.808167 
	C177.252518,151.639206 186.591019,143.200043 192.575806,130.954376 
	C197.668289,120.534500 198.629028,109.328300 199.633484,98.014244 
	C200.392639,98.005882 200.696320,98.002945 201.000000,98.000000 
	C201.000000,108.687561 201.000000,119.375122 201.000000,130.531342 
z"/>
<path fill="#FEFEFD" opacity="1.000000" stroke="none" 
	d="
M16.999008,146.000000 
	C14.618897,145.498169 12.238786,144.996338 9.374228,144.392380 
	C9.322342,139.723419 8.224099,135.388763 1.408940,136.000031 
	C1.000000,135.250000 1.000000,134.500000 1.299171,133.336670 
	C1.918085,132.515564 2.237828,132.107773 2.557569,131.699982 
	C2.038377,131.466660 1.519187,131.233337 0.999999,131.000000 
	C1.000000,128.629440 1.000000,126.258888 1.440236,123.444031 
	C3.054401,122.988899 4.228331,122.978073 5.372766,123.113670 
	C5.343273,123.260086 5.204590,123.524666 5.144822,123.925438 
	C3.886895,128.201385 4.961391,130.884567 9.345316,132.208313 
	C12.474639,136.944916 15.350229,141.438248 17.918566,145.954498 
	C17.407211,145.984940 17.203110,145.992477 16.999008,146.000000 
z"/>
<path fill="#FDFDFC" opacity="1.000000" stroke="none" 
	d="
M73.325195,8.163966 
	C73.051094,6.873868 72.381233,5.480892 72.678017,4.339195 
	C72.816277,3.807360 74.862190,3.859468 75.983208,3.472501 
	C77.348190,3.001317 78.649780,2.346485 79.989395,1.385545 
	C81.066673,1.000000 82.133339,1.000000 83.666962,1.360499 
	C86.049400,3.461214 87.800705,4.093410 89.000000,1.000000 
	C96.020950,1.000000 103.041893,1.000000 110.491096,1.321624 
	C110.270752,2.470977 109.622162,3.298707 108.511353,4.136285 
	C96.217575,3.265088 84.657692,4.731937 73.325195,8.163966 
z"/>
<path fill="#FDFDFC" opacity="1.000000" stroke="none" 
	d="
M201.000000,97.531342 
	C200.696320,98.002945 200.392639,98.005882 199.584106,97.644051 
	C198.391251,92.519699 197.703262,87.760109 197.350616,82.945290 
	C198.417511,80.279816 199.441666,77.548195 195.108826,76.658630 
	C194.662491,75.217529 194.344116,74.103363 194.249664,72.826447 
	C194.030365,72.107353 193.587143,71.551010 192.950836,70.731781 
	C192.462265,69.665543 192.166779,68.862175 192.155792,67.858551 
	C192.630432,66.770897 192.820602,65.883507 193.010773,64.996109 
	C193.453506,64.997574 193.896225,64.999046 194.670731,65.385239 
	C195.698380,67.515251 196.394241,69.260544 197.090103,71.005836 
	C197.537338,70.887993 197.984573,70.770149 198.431824,70.652298 
	C198.620392,69.768723 198.808975,68.885139 198.997559,68.001556 
	C199.442551,68.001122 199.887527,68.000679 200.666260,68.000122 
	C201.000000,77.687561 201.000000,87.375122 201.000000,97.531342 
z"/>
<path fill="#FBFBF8" opacity="1.000000" stroke="none" 
	d="
M5.402261,122.967255 
	C4.228331,122.978073 3.054401,122.988899 1.440236,122.999863 
	C1.000000,121.611107 1.000000,120.222221 1.000001,118.416672 
	C1.901473,117.412285 2.802942,116.824562 4.208385,116.353569 
	C4.942326,118.635948 5.172294,120.801598 5.402261,122.967255 
z"/>
<path fill="#FEFEFD" opacity="1.000000" stroke="none" 
	d="
M88.583336,1.000000 
	C87.800705,4.093410 86.049400,3.461214 84.066956,1.360499 
	C85.388893,1.000000 86.777779,1.000000 88.583336,1.000000 
z"/>
<path fill="#FBFBF8" opacity="1.000000" stroke="none" 
	d="
M108.973572,4.126437 
	C109.622162,3.298707 110.270752,2.470977 110.959671,1.321624 
	C111.444443,1.000000 111.888893,1.000000 112.666664,1.000000 
	C112.975090,1.871427 112.950188,2.742855 112.591751,4.005386 
	C111.163345,4.306472 110.068459,4.216455 108.973572,4.126437 
z"/>
<path fill="#FFFFFF" opacity="1.000000" stroke="none" 
	d="
M75.399994,201.000000 
	C75.838432,198.227051 77.190262,198.324432 78.939575,200.653076 
	C77.933327,201.000000 76.866661,201.000000 75.399994,201.000000 
z"/>
<path fill="#FBFBF8" opacity="1.000000" stroke="none" 
	d="
M0.999999,131.333328 
	C1.519187,131.233337 2.038377,131.466660 2.557569,131.699982 
	C2.237828,132.107773 1.918085,132.515564 1.299171,132.961670 
	C1.000000,132.555557 1.000000,132.111099 0.999999,131.333328 
z"/>
<path fill="#ABADA4" opacity="1.000000" stroke="none" 
	d="
M108.511353,4.136286 
	C110.068459,4.216455 111.163345,4.306472 112.548126,4.439161 
	C125.568825,7.225962 137.357178,11.739951 146.287903,21.851583 
	C152.271988,28.626944 155.892929,36.530094 158.016968,45.943481 
	C158.352539,47.444267 158.621872,48.239391 158.896271,49.422318 
	C160.145569,67.628693 157.846649,84.486252 145.821518,98.783134 
	C145.186417,99.538200 145.279037,100.905365 144.775711,101.865166 
	C144.067963,101.140121 143.617371,100.537476 143.073700,99.642395 
	C142.897308,98.949341 142.813995,98.548744 142.845001,97.688614 
	C142.956543,93.825333 142.953796,90.421577 143.215240,86.849503 
	C143.649918,86.094261 143.820374,85.507347 144.126541,84.590393 
	C146.101578,78.773560 147.940903,73.286751 150.035187,67.039368 
	C146.635284,67.039368 144.854248,67.039368 142.967148,66.991531 
	C142.861099,66.943695 142.657578,66.830910 142.763214,66.420097 
	C142.859558,64.029228 142.850250,62.049175 142.963455,60.007061 
	C143.085968,59.945004 143.338028,59.835857 143.338028,59.835854 
	C145.117599,59.540016 146.897171,59.244175 148.571762,58.965790 
	C151.344238,40.583836 137.876678,19.758591 119.129219,13.949883 
	C101.770111,8.571343 84.768150,9.663676 69.630066,20.417328 
	C64.681892,23.932364 60.690632,29.316999 57.454849,34.580128 
	C53.878132,40.397797 52.660233,41.688381 45.240196,40.475697 
	C48.766506,24.910618 58.593838,14.899221 73.072433,8.418042 
	C84.657692,4.731937 96.217575,3.265088 108.511353,4.136286 
z"/>
<path fill="#BABBB3" opacity="1.000000" stroke="none" 
	d="
M5.372767,123.113670 
	C5.172294,120.801598 4.942326,118.635948 4.510571,116.204155 
	C4.853618,104.711823 3.954216,93.180870 6.245391,82.323189 
	C10.945329,60.050552 30.452150,44.588444 53.473484,43.840546 
	C68.687813,43.346275 82.974602,45.491695 95.506149,54.787964 
	C96.800049,55.747814 97.840897,57.048786 98.886581,58.824001 
	C98.199699,59.668579 97.625397,59.880630 96.598701,60.014931 
	C93.410675,59.937725 90.675034,59.938267 87.683586,59.938103 
	C87.257431,59.945805 87.087097,59.954212 86.566132,59.964329 
	C85.749008,59.939953 85.282516,59.913864 84.789810,59.551083 
	C80.705994,57.579796 76.741608,55.634518 72.569160,54.382744 
	C66.159645,52.459831 65.848320,52.870056 66.213730,59.657413 
	C66.142082,59.772236 65.998901,60.001953 65.558372,59.965324 
	C63.048294,59.916481 60.978745,59.904263 58.945747,59.475594 
	C59.514076,54.797855 58.777557,51.913162 53.431160,53.785908 
	C52.677628,54.049854 51.773026,53.845974 50.953011,53.962132 
	C35.952129,56.086990 24.226147,63.187199 16.639065,76.572945 
	C10.432633,87.522835 9.713319,99.545883 11.466460,111.430931 
	C12.463369,118.189262 16.296000,124.529312 18.927708,131.396790 
	C22.290991,136.743179 25.592209,141.734680 32.211025,143.483307 
	C34.902588,144.917679 37.359543,146.122559 39.844967,147.736221 
	C40.211971,151.245575 40.550507,154.346146 40.914375,157.678711 
	C31.472836,156.173859 24.914001,150.930511 18.225822,145.931564 
	C15.350229,141.438248 12.474639,136.944916 9.313414,131.834473 
	C7.753383,128.653137 6.478985,126.088898 5.204589,123.524666 
	C5.204590,123.524666 5.343273,123.260086 5.372767,123.113670 
z"/>
<path fill="#9C9E91" opacity="1.000000" stroke="none" 
	d="
M100.821320,58.770790 
	C105.279015,55.469479 109.464401,51.687962 114.253990,48.971935 
	C122.867699,44.087372 132.530975,43.595661 143.141922,43.380310 
	C143.141922,48.791885 143.141922,53.866184 143.239975,59.388168 
	C143.338028,59.835857 143.085968,59.945004 142.552216,59.963779 
	C140.071304,60.020119 138.124176,60.057682 136.078812,60.032280 
	C135.980591,59.969318 135.778931,59.851933 135.858078,59.442463 
	C135.937225,57.283428 135.937225,55.533867 135.937225,53.497231 
	C133.026810,53.756737 130.426620,53.475677 128.236496,54.293198 
	C123.990517,55.878120 119.975182,58.080936 115.528564,60.044025 
	C113.747780,60.690422 112.302696,61.320507 110.827080,61.557716 
	C107.471466,60.366829 104.146393,59.568810 100.821320,58.770790 
z"/>
<path fill="#646755" opacity="1.000000" stroke="none" 
	d="
M100.519196,58.795048 
	C104.146393,59.568810 107.471466,60.366829 110.553383,61.681103 
	C109.537018,63.116161 108.763809,64.034958 107.680496,65.076897 
	C105.556435,66.773582 103.742477,68.347130 101.645187,70.023605 
	C99.039360,69.046013 96.716866,67.965485 94.319260,66.529823 
	C94.075134,65.468941 93.906120,64.763199 94.084457,63.932674 
	C95.304909,62.569496 96.178001,61.331093 97.051102,60.092690 
	C97.625397,59.880630 98.199699,59.668579 98.890945,59.168304 
	C99.410957,58.859825 99.814011,58.839565 100.519196,58.795048 
z"/>
<path fill="#8D8F83" opacity="1.000000" stroke="none" 
	d="
M52.406307,176.882080 
	C49.935200,171.975540 47.743755,167.271469 45.327496,161.859650 
	C44.370399,156.100906 43.638119,151.049942 42.983662,145.545792 
	C43.495556,139.756073 43.929630,134.419525 44.567299,128.792389 
	C46.587387,123.361984 48.403877,118.222168 50.499977,112.897232 
	C53.133694,109.534172 55.487804,106.356239 58.003662,103.130173 
	C58.380390,102.999474 58.602760,102.950119 58.922798,103.171082 
	C59.047165,103.573563 59.081249,103.738945 59.074142,104.365707 
	C59.379932,108.250671 59.726913,111.674263 60.014214,115.421204 
	C59.302456,116.828728 58.650383,117.912918 57.853554,119.329453 
	C55.945957,125.154327 54.183113,130.646851 52.178947,136.891251 
	C55.350143,136.891251 57.121803,136.891251 59.183990,136.943924 
	C59.668949,137.027283 59.863384,137.057983 60.020157,137.459351 
	C59.656479,139.495087 59.330456,141.160141 58.966003,143.014954 
	C58.927574,143.204727 58.862606,143.586472 58.862606,143.586472 
	C57.086758,143.586472 55.310909,143.586472 53.630299,143.586472 
	C51.017731,159.435608 61.664909,178.825607 76.792183,186.429504 
	C97.294182,196.735062 125.073219,192.735352 139.165146,177.238480 
	C141.579651,174.583237 143.523849,171.370667 145.131546,168.139984 
	C147.980759,162.414474 149.728134,161.388367 157.314819,162.571396 
	C154.072006,175.400345 146.862442,184.943802 135.350327,191.416016 
	C114.262589,203.271683 80.846115,201.458878 62.409126,187.045013 
	C58.786526,184.212921 55.907784,180.429321 52.406307,176.882080 
z"/>
<path fill="#9D9F93" opacity="1.000000" stroke="none" 
	d="
M194.025726,72.989197 
	C194.344116,74.103363 194.662491,75.217529 195.146362,77.005173 
	C195.879639,79.452606 196.447449,81.226562 197.015259,83.000519 
	C197.703262,87.760109 198.391251,92.519699 199.128616,97.649483 
	C198.629028,109.328300 197.668289,120.534500 192.575806,130.954376 
	C186.591019,143.200043 177.252518,151.639206 164.190979,156.489502 
	C163.501587,156.824402 163.068710,156.935715 162.322571,157.167343 
	C143.892563,161.561462 126.467041,160.378906 110.205086,150.550323 
	C107.807526,149.101257 105.682220,147.201736 103.206543,145.018845 
	C102.982140,144.527069 102.981621,144.039993 103.421669,143.971832 
	C107.536972,143.583511 111.212219,143.263351 115.271896,143.003418 
	C115.907639,143.127899 116.158958,143.192154 116.552414,143.522354 
	C122.520859,147.330643 128.725693,149.556580 136.098419,149.845306 
	C135.978607,147.279114 135.887695,145.331757 135.860794,143.258881 
	C135.924820,143.133331 136.042297,142.877136 136.466278,142.972260 
	C138.908646,143.003464 140.927032,142.939545 143.031067,143.009079 
	C143.116714,143.142517 143.277588,143.415817 143.237579,143.683319 
	C143.197571,144.306778 143.197571,144.662720 143.136993,145.385986 
	C143.100372,146.495987 143.124344,147.238663 143.141785,148.349609 
	C145.111649,148.864960 147.088043,149.012039 149.458694,149.169022 
	C150.898376,149.082657 151.943802,148.986420 153.277100,148.928009 
	C154.084503,148.758606 154.604065,148.551392 155.521317,148.297699 
	C172.742355,144.626373 183.828674,134.583694 189.121887,118.260300 
	C193.087646,106.030586 192.885788,93.547485 188.413513,81.708549 
	C185.986465,75.283707 180.974091,69.835480 176.994492,63.668152 
	C175.902191,62.668365 174.943298,61.947151 173.715073,61.083221 
	C172.936554,61.105129 172.427368,61.269760 171.895096,61.449615 
	C171.871994,61.464844 171.827103,61.470444 171.746643,61.114075 
	C170.135040,59.597305 168.766602,57.941807 167.040512,57.374508 
	C162.805618,55.982658 161.394928,53.110912 161.650620,48.613380 
	C161.526260,47.429844 161.346375,46.646420 161.166489,45.862995 
	C164.174454,46.577175 167.182419,47.291355 170.789032,48.337341 
	C173.912186,50.143242 176.436691,51.617340 179.129486,53.377151 
	C181.889526,56.099041 184.481247,58.535221 187.193726,61.280151 
	C188.833405,63.745537 190.352356,65.902168 191.871292,68.058800 
	C192.166779,68.862175 192.462265,69.665543 192.941101,71.028931 
	C193.424866,72.055695 193.725296,72.522446 194.025726,72.989197 
z"/>
<path fill="#BABCB3" opacity="1.000000" stroke="none" 
	d="
M102.981621,144.039978 
	C102.981621,144.039993 102.982140,144.527069 102.986725,144.770599 
	C98.124542,148.060074 93.605438,152.151123 88.311287,153.912262 
	C79.918503,156.704178 71.027016,158.044250 62.283661,159.658005 
	C61.455898,159.810806 59.396973,157.630798 59.259773,156.385117 
	C58.824512,152.433395 59.029053,148.411194 58.924431,144.001358 
	C58.862606,143.586472 58.927574,143.204727 59.393787,143.122284 
	C61.906742,143.029907 63.953487,143.019989 66.058350,143.211853 
	C66.116478,143.413635 66.191742,143.826920 66.164726,144.178375 
	C65.670288,148.541275 66.555458,150.568268 71.351295,149.217270 
	C76.438911,147.784058 82.193253,148.222214 86.224747,143.165405 
	C88.413940,143.078064 90.170074,143.074921 92.374191,143.075089 
	C96.208664,143.398926 99.595139,143.719452 102.981621,144.039978 
z"/>
<path fill="#FDFDFB" opacity="1.000000" stroke="none" 
	d="
M42.905838,145.998962 
	C43.638119,151.049942 44.370399,156.100906 45.120705,161.572235 
	C43.020172,161.662628 40.896564,161.025345 38.783993,161.060028 
	C32.316383,161.166260 26.193001,161.777176 21.784855,154.870895 
	C20.114353,152.253708 16.022940,151.174362 16.999004,146.415451 
	C17.203110,145.992477 17.407211,145.984940 17.918568,145.954498 
	C24.914001,150.930511 31.472836,156.173859 40.914375,157.678711 
	C40.550507,154.346146 40.211971,151.245575 40.040466,147.425049 
	C41.106945,146.469727 42.006393,146.234344 42.905838,145.998962 
z"/>
<path fill="#FDFDFB" opacity="1.000000" stroke="none" 
	d="
M41.801872,170.805161 
	C42.624203,170.072968 43.240425,169.604446 43.856647,169.135925 
	C44.174736,169.385025 44.492821,169.634125 44.810905,169.883209 
	C44.013847,170.867355 43.216789,171.851486 42.419731,172.835617 
	C42.145077,172.246689 41.870422,171.657761 41.801872,170.805161 
z"/>
<path fill="#FDFDFB" opacity="1.000000" stroke="none" 
	d="
M42.644753,165.740417 
	C42.629959,165.991974 42.495358,166.129135 42.360752,166.266296 
	C42.415482,166.052872 42.470211,165.839447 42.644753,165.740417 
z"/>
<path fill="#FDFDFC" opacity="1.000000" stroke="none" 
	d="
M187.072983,60.971397 
	C184.481247,58.535221 181.889526,56.099041 179.171967,53.023315 
	C179.363708,51.256207 179.681244,50.128639 179.998779,49.001068 
	C182.935349,48.490845 184.941101,49.606129 186.588074,52.129204 
	C187.713120,53.852726 189.663849,55.019344 190.932938,56.674545 
	C191.540680,57.467155 191.423386,58.815693 191.053345,59.861931 
	C189.339142,60.198071 188.206070,60.584732 187.072983,60.971397 
z"/>
<path fill="#F9FAF6" opacity="1.000000" stroke="none" 
	d="
M179.644836,48.995605 
	C179.681244,50.128639 179.363708,51.256207 179.003677,52.737606 
	C176.436691,51.617340 173.912186,50.143242 171.177307,48.414406 
	C171.372223,41.896072 174.386612,46.819397 176.637054,46.960991 
	C177.761993,47.663807 178.526443,48.326973 179.644836,48.995605 
z"/>
<path fill="#F9FAF6" opacity="1.000000" stroke="none" 
	d="
M187.193726,61.280151 
	C188.206070,60.584732 189.339142,60.198071 190.735809,59.905781 
	C191.631592,61.435806 192.263794,62.871464 192.953384,64.651611 
	C192.820602,65.883507 192.630432,66.770897 192.155792,67.858551 
	C190.352356,65.902168 188.833405,63.745537 187.193726,61.280151 
z"/>
<path fill="#F9FAF6" opacity="1.000000" stroke="none" 
	d="
M198.703705,67.855072 
	C198.808975,68.885139 198.620392,69.768723 198.431824,70.652298 
	C197.984573,70.770149 197.537338,70.887993 197.090103,71.005836 
	C196.394241,69.260544 195.698380,67.515251 195.002777,65.386200 
	C196.138657,65.904480 197.274261,66.806526 198.703705,67.855072 
z"/>
<path fill="#F9FAF6" opacity="1.000000" stroke="none" 
	d="
M171.748291,40.994865 
	C172.113403,41.493088 172.229095,41.992958 172.344788,42.492825 
	C171.918228,42.185562 171.491684,41.878296 171.032562,41.284313 
	C171.000000,40.997597 171.498856,40.996506 171.748291,40.994865 
z"/>
<path fill="#FDFDFC" opacity="1.000000" stroke="none" 
	d="
M159.999344,25.999134 
	C160.092270,25.962936 160.185837,25.927607 160.140625,25.946804 
	C160.001831,26.001331 160.000000,26.000000 159.999344,25.999134 
z"/>
<path fill="#F9FAF6" opacity="1.000000" stroke="none" 
	d="
M160.874817,45.915688 
	C161.346375,46.646420 161.526260,47.429844 161.314880,48.611828 
	C160.246140,49.018429 159.568665,49.026474 158.891205,49.034515 
	C158.621872,48.239391 158.352539,47.444267 158.123764,46.318520 
	C158.970612,45.981388 159.776871,45.974888 160.874817,45.915688 
z"/>
<path fill="#FBFBF8" opacity="1.000000" stroke="none" 
	d="
M5.144821,123.925438 
	C6.478985,126.088898 7.753383,128.653137 9.059681,131.591217 
	C4.961391,130.884567 3.886895,128.201385 5.144821,123.925438 
z"/>
<path fill="#F9FAF6" opacity="1.000000" stroke="none" 
	d="
M197.350616,82.945290 
	C196.447449,81.226562 195.879639,79.452606 195.274307,77.332108 
	C199.441666,77.548195 198.417511,80.279816 197.350616,82.945290 
z"/>
<path fill="#F9FAF6" opacity="1.000000" stroke="none" 
	d="
M194.249664,72.826447 
	C193.725296,72.522446 193.424866,72.055695 193.134171,71.291801 
	C193.587143,71.551010 194.030365,72.107353 194.249664,72.826447 
z"/>
<path fill="#FEFEFD" opacity="1.000000" stroke="none" 
	d="
M158.896271,49.422318 
	C159.568665,49.026474 160.246140,49.018429 161.259338,49.011940 
	C161.394928,53.110912 162.805618,55.982658 167.040512,57.374508 
	C168.766602,57.941807 170.135040,59.597305 171.285889,61.277260 
	C170.270187,61.864670 169.634781,61.932529 168.964844,61.715771 
	C168.625015,61.108429 168.319748,60.785709 168.014481,60.462990 
	C167.832596,60.672859 167.650711,60.882729 167.468811,61.092598 
	C167.979416,61.394951 168.490005,61.697308 169.010040,62.380447 
	C169.562897,63.439972 170.106323,64.118713 170.649750,64.797455 
	C171.072571,63.676434 171.495377,62.555412 171.918198,61.434387 
	C172.427368,61.269760 172.936554,61.105129 173.730347,61.441505 
	C175.052612,62.610584 176.090256,63.278656 177.127899,63.946728 
	C180.974091,69.835480 185.986465,75.283707 188.413513,81.708549 
	C192.885788,93.547485 193.087646,106.030586 189.121887,118.260300 
	C183.828674,134.583694 172.742355,144.626373 155.380676,148.019089 
	C154.224640,148.154709 153.606934,148.522446 152.989227,148.890182 
	C151.943802,148.986420 150.898376,149.082657 149.216736,148.860962 
	C146.769791,148.355804 144.959061,148.168579 143.148315,147.981354 
	C143.124344,147.238663 143.100372,146.495987 143.393707,145.351959 
	C144.149887,144.492859 144.588760,144.035095 145.476776,143.461060 
	C150.173660,143.344788 154.421432,143.344788 158.941055,143.344788 
	C159.473038,127.193817 156.497910,113.164742 145.032883,101.987572 
	C145.279037,100.905365 145.186417,99.538200 145.821518,98.783134 
	C157.846649,84.486252 160.145569,67.628693 158.896271,49.422318 
z"/>
<path fill="#8C8F83" opacity="1.000000" stroke="none" 
	d="
M144.775711,101.865166 
	C156.497910,113.164742 159.473038,127.193817 158.941055,143.344788 
	C154.421432,143.344788 150.173660,143.344788 145.203583,143.323639 
	C144.080032,143.340271 143.678818,143.378052 143.277588,143.415817 
	C143.277588,143.415817 143.116714,143.142517 143.055328,142.606598 
	C142.937912,140.181534 142.881897,138.292419 142.882050,136.285706 
	C142.938202,136.168137 143.047882,135.931732 143.478149,136.049316 
	C145.483627,136.166885 147.058838,136.166885 149.162079,136.166885 
	C148.603363,128.584915 148.022354,121.724571 142.919128,115.828018 
	C142.524368,114.725418 142.245239,113.923973 142.273132,112.832367 
	C142.679977,109.341209 142.779770,106.140190 142.933990,102.565857 
	C143.047867,101.439972 143.107330,100.687408 143.166794,99.934837 
	C143.617371,100.537476 144.067963,101.140121 144.775711,101.865166 
z"/>
<path fill="#9B9C8F" opacity="1.000000" stroke="none" 
	d="
M143.990845,84.920433 
	C143.820374,85.507347 143.649918,86.094261 142.959412,87.049133 
	C140.625046,89.920700 138.810715,92.424309 136.749939,94.963257 
	C136.503494,94.998604 136.028198,95.147095 136.008850,94.888329 
	C136.013153,94.291756 136.036774,93.953957 136.053406,93.108849 
	C136.014740,84.077553 135.983063,75.553551 136.052765,66.985497 
	C136.154160,66.941437 136.353790,66.846420 136.750305,66.884354 
	C138.983749,66.891830 140.820663,66.861374 142.657578,66.830910 
	C142.657578,66.830910 142.861099,66.943695 142.934036,67.455170 
	C143.334930,73.617905 143.662888,79.269165 143.990845,84.920433 
z"/>
<path fill="#F9FAF6" opacity="1.000000" stroke="none" 
	d="
M144.126556,84.590393 
	C143.662888,79.269165 143.334930,73.617905 143.040085,67.503006 
	C144.854248,67.039368 146.635284,67.039368 150.035187,67.039368 
	C147.940903,73.286751 146.101578,78.773560 144.126556,84.590393 
z"/>
<path fill="#4A4C35" opacity="1.000000" stroke="none" 
	d="
M136.028198,95.147095 
	C136.028198,95.147095 136.503494,94.998604 136.936996,95.242325 
	C139.157227,96.373405 140.943970,97.260773 142.730698,98.148140 
	C142.813995,98.548744 142.897308,98.949341 143.073700,99.642395 
	C143.107330,100.687408 143.047867,101.439972 142.610992,102.618591 
	C140.817886,104.388062 139.402191,105.731476 137.685944,107.023590 
	C136.991333,106.873131 136.597275,106.773987 136.145905,106.366989 
	C135.410477,105.026154 134.732346,103.993179 134.015961,102.634483 
	C134.661194,99.921539 135.344696,97.534317 136.028198,95.147095 
z"/>
<path fill="#717463" opacity="1.000000" stroke="none" 
	d="
M142.763214,66.420097 
	C140.820663,66.861374 138.983749,66.891830 136.648834,66.471985 
	C136.159576,64.046196 136.168304,62.070721 136.177032,60.095245 
	C138.124176,60.057682 140.071304,60.020119 142.429688,60.025837 
	C142.850250,62.049175 142.859558,64.029228 142.763214,66.420097 
z"/>
<path fill="#717463" opacity="1.000000" stroke="none" 
	d="
M142.845001,97.688614 
	C140.943970,97.260773 139.157227,96.373405 137.183441,95.206978 
	C138.810715,92.424309 140.625046,89.920700 142.695221,87.217461 
	C142.953796,90.421577 142.956543,93.825333 142.845001,97.688614 
z"/>
<path fill="#FDFDFC" opacity="1.000000" stroke="none" 
	d="
M42.983662,145.545792 
	C42.006393,146.234344 41.106945,146.469727 40.011997,147.016266 
	C37.359543,146.122559 34.902588,144.917679 32.219898,143.047546 
	C31.073021,140.787277 30.460873,138.177933 29.173330,137.785721 
	C25.165539,136.564835 23.825291,134.121384 24.500601,130.082016 
	C22.322083,130.458298 20.586851,130.758011 18.851616,131.057724 
	C16.296000,124.529312 12.463369,118.189262 11.466460,111.430931 
	C9.713319,99.545883 10.432633,87.522835 16.639065,76.572945 
	C24.226147,63.187199 35.952129,56.086990 50.953011,53.962132 
	C51.773026,53.845974 52.677628,54.049854 53.431160,53.785908 
	C58.777557,51.913162 59.514076,54.797855 58.952805,59.494095 
	C58.923306,59.929043 58.956150,59.948162 58.493225,59.912827 
	C54.366013,59.876575 50.691853,60.041527 47.040428,59.824314 
	C43.898132,59.637390 42.768074,60.948959 43.108723,63.903591 
	C43.621300,68.349510 43.955181,72.824486 44.676785,77.236122 
	C46.314510,87.248627 51.917137,95.308792 57.841919,103.178307 
	C55.487804,106.356239 53.133694,109.534172 50.110634,112.876472 
	C44.211349,112.707977 41.109200,114.771858 41.129955,120.389359 
	C41.137554,122.445328 40.726318,124.597542 41.224831,126.519432 
	C41.498466,127.574364 43.268425,128.241165 44.363701,129.082977 
	C43.929630,134.419525 43.495556,139.756073 42.983662,145.545792 
z"/>
<path fill="#ADADA4" opacity="1.000000" stroke="none" 
	d="
M93.737099,64.057449 
	C93.906120,64.763199 94.075134,65.468941 94.087204,66.573425 
	C93.930260,66.972160 93.461662,66.978081 92.954292,66.937981 
	C83.657219,66.956619 74.867516,67.015366 66.062805,66.631882 
	C66.031494,64.127090 66.015198,62.064522 65.998901,60.001953 
	C65.998901,60.001953 66.142082,59.772236 66.644539,59.779076 
	C73.036674,59.819866 78.926346,59.853821 84.816025,59.887779 
	C85.282516,59.913864 85.749008,59.939953 86.684303,60.194214 
	C87.427200,60.619228 87.701302,60.816063 88.283524,61.144363 
	C90.306793,62.203033 92.021950,63.130241 93.737099,64.057449 
z"/>
<path fill="#F3F4F0" opacity="1.000000" stroke="none" 
	d="
M84.789810,59.551079 
	C78.926346,59.853821 73.036674,59.819866 66.716187,59.664253 
	C65.848320,52.870056 66.159645,52.459831 72.569160,54.382744 
	C76.741608,55.634518 80.705994,57.579796 84.789810,59.551079 
z"/>
<path fill="#FDFDFB" opacity="1.000000" stroke="none" 
	d="
M18.927708,131.396790 
	C20.586851,130.758011 22.322083,130.458298 24.500601,130.082016 
	C23.825291,134.121384 25.165539,136.564835 29.173330,137.785721 
	C30.460873,138.177933 31.073021,140.787277 31.985291,142.818054 
	C25.592209,141.734680 22.290991,136.743179 18.927708,131.396790 
z"/>
<path fill="#828576" opacity="1.000000" stroke="none" 
	d="
M65.558380,59.965324 
	C66.015198,62.064522 66.031494,64.127090 66.084251,66.637070 
	C66.120712,67.084480 66.107887,67.127907 65.668854,67.087845 
	C63.198067,66.872276 61.166306,66.696762 59.112259,66.114449 
	C59.045364,63.787815 59.000759,61.867989 58.956154,59.948162 
	C58.956150,59.948162 58.923306,59.929043 58.916252,59.910545 
	C60.978745,59.904263 63.048294,59.916481 65.558380,59.965324 
z"/>
<path fill="#828576" opacity="1.000000" stroke="none" 
	d="
M94.084457,63.932674 
	C92.021950,63.130241 90.306793,62.203033 88.277206,60.875702 
	C87.954987,60.296658 87.947189,60.117733 87.939400,59.938812 
	C90.675034,59.938267 93.410675,59.937725 96.598709,60.014935 
	C96.178001,61.331093 95.304909,62.569496 94.084457,63.932674 
z"/>
<path fill="#9C9E91" opacity="1.000000" stroke="none" 
	d="
M87.683586,59.938103 
	C87.947189,60.117733 87.954987,60.296658 87.969086,60.744240 
	C87.701302,60.816063 87.427200,60.619228 87.034935,60.192505 
	C87.087097,59.954212 87.257431,59.945805 87.683586,59.938103 
z"/>
<path fill="#A8AAA1" opacity="1.000000" stroke="none" 
	d="
M136.078796,60.032280 
	C136.168304,62.070721 136.159576,64.046196 136.252319,66.434052 
	C136.353790,66.846420 136.154160,66.941437 135.591400,66.924652 
	C126.011856,66.887619 116.995056,66.867371 107.988846,66.531822 
	C107.996490,65.795593 107.993546,65.374680 107.990601,64.953758 
	C108.763809,64.034958 109.537018,63.116161 110.583923,62.073975 
	C112.302696,61.320507 113.747780,60.690422 116.010056,60.016335 
	C123.144485,59.932198 129.461716,59.892067 135.778931,59.851936 
	C135.778931,59.851933 135.980591,59.969318 136.078796,60.032280 
z"/>
<path fill="#F5F6F1" opacity="1.000000" stroke="none" 
	d="
M135.858078,59.442467 
	C129.461716,59.892067 123.144485,59.932198 116.345764,60.000019 
	C119.975182,58.080936 123.990517,55.878120 128.236496,54.293198 
	C130.426620,53.475677 133.026810,53.756737 135.937225,53.497231 
	C135.937225,55.533867 135.937225,57.283428 135.858078,59.442467 
z"/>
<path fill="#969F87" opacity="1.000000" stroke="none" 
	d="
M93.461662,66.978081 
	C93.461662,66.978081 93.930260,66.972160 94.162315,66.928558 
	C96.716866,67.965485 99.039360,69.046013 101.679153,70.379265 
	C101.996513,71.107002 101.996582,71.582008 102.021057,72.296997 
	C102.045471,72.536972 102.040009,73.020538 101.661728,73.012527 
	C100.529671,73.018158 99.775902,73.031792 98.622528,72.987228 
	C96.066010,72.540512 93.909088,72.152000 91.812012,71.406189 
	C92.401779,69.691956 92.931725,68.335014 93.461662,66.978081 
z"/>
<path fill="#BABCB3" opacity="1.000000" stroke="none" 
	d="
M101.996643,72.057022 
	C101.996582,71.582008 101.996513,71.107002 101.962486,70.276337 
	C103.742477,68.347130 105.556435,66.773582 107.680496,65.076897 
	C107.993546,65.374680 107.996490,65.795593 108.003036,66.888260 
	C108.682968,69.016960 109.359299,70.473915 109.590858,71.977051 
	C106.762939,72.034500 104.379791,72.045761 101.996643,72.057022 
z"/>
<path fill="#ABACA3" opacity="1.000000" stroke="none" 
	d="
M58.493229,59.912827 
	C59.000759,61.867989 59.045364,63.787815 59.086746,66.231270 
	C59.083523,66.754898 59.010544,66.978218 58.580063,66.943100 
	C56.573868,66.983200 54.998158,67.058411 52.060757,67.198624 
	C54.218647,74.234581 56.147861,80.524933 58.083351,87.143852 
	C58.742050,88.559227 59.394482,89.646042 59.769936,91.050613 
	C59.647839,94.243927 59.802723,97.119476 59.903103,100.305939 
	C59.509903,101.389221 59.171207,102.161598 58.832508,102.933983 
	C58.602760,102.950119 58.380390,102.999474 58.003662,103.130173 
	C51.917137,95.308792 46.314510,87.248627 44.676785,77.236122 
	C43.955181,72.824486 43.621300,68.349510 43.108723,63.903591 
	C42.768074,60.948959 43.898132,59.637390 47.040428,59.824314 
	C50.691853,60.041527 54.366013,59.876575 58.493229,59.912827 
z"/>
<path fill="#BABCB3" opacity="1.000000" stroke="none" 
	d="
M60.057816,137.088669 
	C59.863384,137.057983 59.668949,137.027283 59.249687,136.489166 
	C59.185551,130.955215 59.401260,125.929115 59.437584,120.901718 
	C59.442150,120.270348 58.501179,119.632141 57.998306,118.997101 
	C58.650383,117.912918 59.302456,116.828728 60.250893,115.189865 
	C62.074226,112.459488 63.601196,110.283791 65.347260,108.078018 
	C65.566353,108.047943 66.005974,107.999535 66.221527,108.114471 
	C66.722504,108.417015 66.911743,108.675156 66.723404,109.309128 
	C66.365265,117.082939 66.288506,124.551437 66.159973,132.419891 
	C66.071342,133.896072 66.034477,134.972336 66.026154,136.305634 
	C66.038071,136.734314 66.021454,136.905945 65.580093,137.046661 
	C63.456173,137.040070 61.756992,137.064362 60.057816,137.088669 
z"/>
<path fill="#FDFDFB" opacity="1.000000" stroke="none" 
	d="
M44.567299,128.792389 
	C43.268425,128.241165 41.498466,127.574364 41.224831,126.519432 
	C40.726318,124.597542 41.137554,122.445328 41.129955,120.389359 
	C41.109200,114.771858 44.211349,112.707977 49.831032,113.061600 
	C48.403877,118.222168 46.587387,123.361984 44.567299,128.792389 
z"/>
<path fill="#F8FAF4" opacity="1.000000" stroke="none" 
	d="
M57.853554,119.329453 
	C58.501179,119.632141 59.442150,120.270348 59.437584,120.901718 
	C59.401260,125.929115 59.185551,130.955215 58.959167,136.436493 
	C57.121803,136.891251 55.350143,136.891251 52.178947,136.891251 
	C54.183113,130.646851 55.945957,125.154327 57.853554,119.329453 
z"/>
<path fill="#525541" opacity="1.000000" stroke="none" 
	d="
M66.005974,107.999535 
	C66.005974,107.999535 65.566353,108.047943 65.006622,107.995560 
	C62.669712,106.596893 60.892525,105.250618 59.115337,103.904335 
	C59.081249,103.738945 59.047165,103.573563 58.922798,103.171082 
	C59.171207,102.161598 59.509903,101.389221 60.214821,100.185928 
	C62.066086,98.775177 63.551128,97.795334 65.341850,96.910812 
	C66.106995,97.662109 66.566467,98.318100 67.004639,99.382935 
	C66.701309,102.251984 66.419266,104.712181 66.097061,107.378006 
	C66.056892,107.583626 66.005974,107.999535 66.005974,107.999535 
z"/>
<path fill="#717463" opacity="1.000000" stroke="none" 
	d="
M59.074142,104.365707 
	C60.892525,105.250618 62.669712,106.596893 64.787537,108.025635 
	C63.601196,110.283791 62.074226,112.459488 60.310577,114.866524 
	C59.726913,111.674263 59.379932,108.250671 59.074142,104.365707 
z"/>
<path fill="#6C6F61" opacity="1.000000" stroke="none" 
	d="
M60.020157,137.459351 
	C61.756992,137.064362 63.456173,137.040070 65.583984,137.468552 
	C66.008484,139.617584 66.004356,141.313812 66.000229,143.010056 
	C63.953487,143.019989 61.906742,143.029907 59.432217,142.932510 
	C59.330456,141.160141 59.656479,139.495087 60.020157,137.459351 
z"/>
<path fill="#898A80" opacity="1.000000" stroke="none" 
	d="
M116.410271,143.256378 
	C116.158958,143.192154 115.907639,143.127899 115.095047,142.743439 
	C113.000481,140.690170 111.467194,138.957123 110.277489,136.968414 
	C119.083847,136.480270 127.546623,136.247787 136.036331,136.138123 
	C136.063263,136.260956 136.104355,136.509064 136.080750,136.906769 
	C136.052200,139.162018 136.047241,141.019577 136.042297,142.877136 
	C136.042297,142.877136 135.924820,143.133331 135.424438,143.128265 
	C128.752792,143.167587 122.581535,143.211990 116.410271,143.256378 
z"/>
<path fill="#5B5B48" opacity="1.000000" stroke="none" 
	d="
M109.933907,137.224060 
	C111.467194,138.957123 113.000481,140.690170 114.710625,142.683212 
	C111.212219,143.263351 107.536972,143.583511 103.421669,143.971817 
	C99.595139,143.719452 96.208664,143.398926 92.430832,142.722412 
	C93.081154,140.406906 94.122826,138.447403 95.449715,136.354095 
	C96.137428,136.115463 96.539917,136.010635 97.400452,135.948883 
	C100.309715,135.872177 102.760933,135.752365 105.537262,135.755219 
	C106.542786,135.945328 107.223206,136.012802 108.167542,136.204041 
	C108.932274,136.626556 109.433090,136.925308 109.933907,137.224060 
z"/>
<path fill="#E1E1DA" opacity="1.000000" stroke="none" 
	d="
M116.552414,143.522339 
	C122.581535,143.211990 128.752792,143.167587 135.360413,143.253799 
	C135.887695,145.331757 135.978607,147.279114 136.098419,149.845306 
	C128.725693,149.556580 122.520859,147.330643 116.552414,143.522339 
z"/>
<path fill="#616352" opacity="1.000000" stroke="none" 
	d="
M136.466278,142.972260 
	C136.047241,141.019577 136.052200,139.162018 136.492218,136.774902 
	C138.893463,136.297989 140.859665,136.350647 142.825867,136.403290 
	C142.881897,138.292419 142.937912,140.181534 142.969666,142.473145 
	C140.927032,142.939545 138.908646,143.003464 136.466278,142.972260 
z"/>
<path fill="#F5F6F1" opacity="1.000000" stroke="none" 
	d="
M143.141785,148.349609 
	C144.959061,148.168579 146.769791,148.355804 148.822479,148.851074 
	C147.088043,149.012039 145.111649,148.864960 143.141785,148.349609 
z"/>
<path fill="#F9FAF6" opacity="1.000000" stroke="none" 
	d="
M168.999390,62.000389 
	C169.634781,61.932529 170.270187,61.864670 171.366333,61.633629 
	C171.827103,61.470444 171.871994,61.464844 171.895096,61.449615 
	C171.495377,62.555412 171.072571,63.676434 170.649750,64.797455 
	C170.106323,64.118713 169.562897,63.439972 169.009735,62.380615 
	C169.000000,62.000000 168.999390,62.000389 168.999390,62.000389 
z"/>
<path fill="#F9FAF6" opacity="1.000000" stroke="none" 
	d="
M176.994492,63.668152 
	C176.090256,63.278656 175.052612,62.610584 173.999695,61.584225 
	C174.943298,61.947151 175.902191,62.668365 176.994492,63.668152 
z"/>
<path fill="#F5F6F1" opacity="1.000000" stroke="none" 
	d="
M143.237579,143.683319 
	C143.678818,143.378052 144.080032,143.340271 144.754456,143.439911 
	C144.588760,144.035095 144.149887,144.492859 143.454285,144.984650 
	C143.197571,144.662720 143.197571,144.306778 143.237579,143.683319 
z"/>
<path fill="#F5F6F1" opacity="1.000000" stroke="none" 
	d="
M153.277100,148.928009 
	C153.606934,148.522446 154.224640,148.154709 154.982971,148.065582 
	C154.604065,148.551392 154.084503,148.758606 153.277100,148.928009 
z"/>
<path fill="#8A8A7B" opacity="1.000000" stroke="none" 
	d="
M95.164490,136.487900 
	C94.122826,138.447403 93.081154,140.406906 91.982841,142.719086 
	C90.170074,143.074921 88.413940,143.078064 85.774750,143.135162 
	C78.658363,143.401718 72.425056,143.614319 66.191742,143.826920 
	C66.191742,143.826920 66.116478,143.413635 66.058350,143.211853 
	C66.004356,141.313812 66.008484,139.617584 66.008728,137.499451 
	C66.021454,136.905945 66.038071,136.734314 66.493591,136.352524 
	C76.141312,136.190964 85.350128,136.239578 94.715286,136.316238 
	C94.871628,136.344284 95.164490,136.487900 95.164490,136.487900 
z"/>
<path fill="#F8FAF4" opacity="1.000000" stroke="none" 
	d="
M66.164726,144.178375 
	C72.425056,143.614319 78.658363,143.401718 85.341675,143.219360 
	C82.193253,148.222214 76.438911,147.784058 71.351295,149.217270 
	C66.555458,150.568268 65.670288,148.541275 66.164726,144.178375 
z"/>
<path fill="#F9FAF6" opacity="1.000000" stroke="none" 
	d="
M169.000305,61.999832 
	C168.490005,61.697308 167.979416,61.394951 167.468811,61.092598 
	C167.650711,60.882729 167.832596,60.672859 168.014481,60.462990 
	C168.319748,60.785709 168.625015,61.108429 168.964844,61.715771 
	C168.999390,62.000389 169.000000,62.000000 169.000305,61.999832 
z"/>
<path fill="#9B9C91" opacity="1.000000" stroke="none" 
	d="
M142.882034,136.285706 
	C140.859665,136.350647 138.893463,136.297989 136.515808,136.377197 
	C136.104355,136.509064 136.063263,136.260956 136.050995,135.668243 
	C136.008377,126.085236 135.978043,117.094933 136.002167,107.745506 
	C136.105515,107.149193 136.154373,106.912018 136.203232,106.674850 
	C136.597275,106.773987 136.991333,106.873131 137.812180,107.322769 
	C139.481354,109.489685 140.723740,111.306099 141.966110,113.122520 
	C142.245239,113.923973 142.524368,114.725418 142.909424,116.286003 
	C143.026184,123.340668 143.037033,129.636200 143.047882,135.931732 
	C143.047882,135.931732 142.938202,136.168137 142.882034,136.285706 
z"/>
<path fill="#F8FAF4" opacity="1.000000" stroke="none" 
	d="
M143.478149,136.049316 
	C143.037033,129.636200 143.026184,123.340668 143.025055,116.587151 
	C148.022354,121.724571 148.603363,128.584915 149.162079,136.166885 
	C147.058838,136.166885 145.483627,136.166885 143.478149,136.049316 
z"/>
<path fill="#616352" opacity="1.000000" stroke="none" 
	d="
M142.273132,112.832367 
	C140.723740,111.306099 139.481354,109.489685 138.112732,107.374084 
	C139.402191,105.731476 140.817886,104.388062 142.556580,102.991913 
	C142.779770,106.140190 142.679977,109.341209 142.273132,112.832367 
z"/>
<path fill="#FAFDF2" opacity="1.000000" stroke="none" 
	d="
M110.035629,71.930878 
	C109.359299,70.473915 108.682968,69.016960 107.992447,67.203568 
	C116.995056,66.867371 126.011856,66.887619 135.490021,66.968712 
	C135.983063,75.553551 136.014740,84.077553 135.659637,93.089508 
	C133.606842,92.941269 131.940811,92.305069 130.178192,91.421585 
	C129.922089,90.857590 129.762589,90.540878 129.754044,89.763504 
	C129.935501,84.647049 130.172867,79.976837 129.850418,75.345604 
	C129.770264,74.194542 127.920166,72.287514 126.814072,72.236519 
	C121.513321,71.992119 116.188690,72.265739 110.665657,72.244583 
	C110.458771,72.133850 110.035629,71.930878 110.035629,71.930878 
z"/>
<path fill="#859175" opacity="1.000000" stroke="none" 
	d="
M130.274811,91.668877 
	C131.940811,92.305069 133.606842,92.941269 135.666626,93.596809 
	C136.036774,93.953957 136.013153,94.291756 136.008850,94.888329 
	C135.344696,97.534317 134.661194,99.921539 133.617996,102.649773 
	C132.198105,102.997246 131.137924,103.003708 129.758957,102.957748 
	C129.228867,102.866013 129.017532,102.826714 128.875992,102.444214 
	C128.961456,101.397362 128.977142,100.693726 129.300125,99.716011 
	C129.829880,96.850922 130.052338,94.259895 130.274811,91.668877 
z"/>
<path fill="#A6AF97" opacity="1.000000" stroke="none" 
	d="
M130.077728,103.010170 
	C131.137924,103.003708 132.198105,102.997246 133.656265,102.975494 
	C134.732346,103.993179 135.410477,105.026154 136.145905,106.366989 
	C136.154373,106.912018 136.105515,107.149193 135.677917,107.808289 
	C133.671402,108.911995 132.043625,109.593803 130.298309,109.829430 
	C130.146408,107.258896 130.112076,105.134529 130.077728,103.010170 
z"/>
<path fill="#F8FBF0" opacity="1.000000" stroke="none" 
	d="
M92.954292,66.937981 
	C92.931725,68.335014 92.401779,69.691956 91.559158,71.494148 
	C90.937431,72.118729 90.628403,72.298050 89.843956,72.329590 
	C84.931404,72.133293 80.493332,72.124542 76.057487,72.020889 
	C73.524513,71.961708 71.891739,72.729668 71.990150,75.613693 
	C72.169022,80.856049 72.307426,86.099792 72.339218,91.571915 
	C72.068893,92.113838 71.922058,92.426796 71.428696,92.796204 
	C69.383751,93.573036 67.685318,94.293404 66.015045,94.544922 
	C66.064758,85.093353 66.086327,76.110634 66.107895,67.127907 
	C66.107887,67.127907 66.120712,67.084480 66.099258,67.079292 
	C74.867516,67.015366 83.657219,66.956619 92.954292,66.937981 
z"/>
<path fill="#BABBB2" opacity="1.000000" stroke="none" 
	d="
M65.668861,67.087845 
	C66.086327,76.110634 66.064758,85.093353 65.749008,94.634064 
	C65.280106,95.259048 65.105392,95.326050 64.667831,95.166855 
	C62.952286,93.538063 61.499603,92.135460 60.046917,90.732857 
	C59.394482,89.646042 58.742050,88.559227 58.392670,86.885674 
	C58.800659,79.858696 58.905602,73.418457 59.010544,66.978218 
	C59.010544,66.978218 59.083523,66.754898 59.109032,66.638077 
	C61.166306,66.696762 63.198067,66.872276 65.668861,67.087845 
z"/>
<path fill="#7B9E57" opacity="1.000000" stroke="none" 
	d="
M109.590858,71.977051 
	C110.035629,71.930878 110.458771,72.133850 110.742813,72.581604 
	C112.330856,77.374191 113.634872,81.719040 114.508453,86.068481 
	C112.062157,86.063225 110.046288,86.053375 107.751846,86.024231 
	C107.289520,85.975143 107.105766,85.945366 106.945244,85.539032 
	C105.325645,81.115158 103.682831,77.067848 102.040009,73.020538 
	C102.040009,73.020538 102.045471,72.536972 102.021057,72.296997 
	C104.379791,72.045761 106.762939,72.034500 109.590858,71.977051 
z"/>
<path fill="#688946" opacity="1.000000" stroke="none" 
	d="
M90.319366,72.477379 
	C90.628403,72.298050 90.937431,72.118729 91.499321,71.851448 
	C93.909088,72.152000 96.066010,72.540512 98.604988,73.359375 
	C97.668053,77.853249 96.349052,81.916756 94.750488,86.003990 
	C94.284271,86.040100 94.097633,86.052483 93.513992,86.039032 
	C91.028755,86.291191 88.940536,86.569176 86.877258,86.441360 
	C87.562355,83.008316 88.222496,79.981071 88.970276,76.624214 
	C89.478394,75.022186 89.898880,73.749779 90.319366,72.477379 
z"/>
<path fill="#A5CA7C" opacity="1.000000" stroke="none" 
	d="
M95.030052,85.980270 
	C96.349052,81.916756 97.668053,77.853249 99.004593,73.417580 
	C99.775902,73.031792 100.529671,73.018158 101.661728,73.012527 
	C103.682831,77.067848 105.325645,81.115158 106.492493,85.556313 
	C102.354370,85.960190 98.692207,85.970230 95.030052,85.980270 
z"/>
<path fill="#F9FAF6" opacity="1.000000" stroke="none" 
	d="
M58.580063,66.943100 
	C58.905602,73.418457 58.800659,79.858696 58.386398,86.557114 
	C56.147861,80.524933 54.218647,74.234581 52.060757,67.198624 
	C54.998158,67.058411 56.573868,66.983200 58.580063,66.943100 
z"/>
<path fill="#828576" opacity="1.000000" stroke="none" 
	d="
M59.769936,91.050613 
	C61.499603,92.135460 62.952286,93.538063 64.688782,95.400375 
	C64.995674,96.178429 65.016861,96.496895 65.036171,96.815491 
	C63.551128,97.795334 62.066086,98.775177 60.269325,99.875031 
	C59.802723,97.119476 59.647839,94.243927 59.769936,91.050613 
z"/>
<path fill="#F6FAEC" opacity="1.000000" stroke="none" 
	d="
M66.211746,132.019943 
	C66.288506,124.551437 66.365265,117.082939 67.023361,109.453796 
	C69.004700,109.925774 70.404701,110.558388 71.911255,111.460045 
	C72.198135,112.071426 72.378471,112.413773 72.382614,113.209084 
	C72.146942,115.459175 72.039597,117.256203 72.035782,119.053436 
	C72.011520,130.472916 72.019066,130.472931 82.938217,131.435669 
	C80.368927,132.502106 77.867569,133.775879 75.373550,133.761658 
	C72.316399,133.744217 69.265404,132.649139 66.211746,132.019943 
z"/>
<path fill="#FBFBF8" opacity="1.000000" stroke="none" 
	d="
M66.159973,132.419891 
	C69.265404,132.649139 72.316399,133.744217 75.373550,133.761658 
	C77.867569,133.775879 80.368927,132.502106 83.267776,131.386444 
	C84.110428,131.007385 84.552338,131.041306 85.066643,131.425797 
	C87.696663,132.210083 90.254288,132.643799 93.046143,133.354675 
	C93.706566,134.517273 94.132751,135.402740 94.558937,136.288193 
	C85.350128,136.239578 76.141312,136.190964 66.465057,136.095459 
	C66.034477,134.972336 66.071342,133.896072 66.159973,132.419891 
z"/>
<path fill="#A6AF97" opacity="1.000000" stroke="none" 
	d="
M71.804718,111.190994 
	C70.404701,110.558388 69.004700,109.925774 67.304741,109.148499 
	C66.911743,108.675156 66.722504,108.417015 66.221527,108.114471 
	C66.005974,107.999535 66.056892,107.583626 66.368324,107.203079 
	C68.141014,105.562439 69.602264,104.302345 71.262047,103.044350 
	C71.460571,103.046448 71.856155,103.012062 71.904739,103.460510 
	C71.903793,106.336296 71.854256,108.763649 71.804718,111.190994 
z"/>
<path fill="#8A937E" opacity="1.000000" stroke="none" 
	d="
M71.856155,103.012062 
	C71.856155,103.012062 71.460571,103.046448 71.220261,102.700958 
	C69.661942,101.228348 68.343933,100.101212 67.025932,98.974083 
	C66.566467,98.318100 66.106995,97.662109 65.341850,96.910805 
	C65.016861,96.496895 64.995674,96.178429 64.951645,95.626572 
	C65.105392,95.326050 65.280106,95.259048 65.720856,95.102905 
	C67.685318,94.293404 69.383751,93.573036 71.496262,93.189301 
	C72.325096,95.791039 72.739845,98.056137 73.115524,100.648224 
	C73.074791,101.643753 73.073120,102.312286 72.767593,102.987411 
	C72.261215,103.000015 72.058685,103.006035 71.856155,103.012062 
z"/>
<path fill="#696D59" opacity="1.000000" stroke="none" 
	d="
M67.004639,99.382935 
	C68.343933,100.101212 69.661942,101.228348 71.021729,102.698868 
	C69.602264,104.302345 68.141014,105.562439 66.408493,106.997459 
	C66.419266,104.712181 66.701309,102.251984 67.004639,99.382935 
z"/>
<path fill="#F9FCF3" opacity="1.000000" stroke="none" 
	d="
M130.415848,110.275604 
	C132.043625,109.593803 133.671402,108.911995 135.623444,108.167419 
	C135.978043,117.094933 136.008377,126.085236 136.024048,135.545410 
	C127.546623,136.247787 119.083847,136.480270 110.277489,136.968414 
	C109.433090,136.925308 108.932274,136.626556 108.335281,135.904175 
	C108.864861,134.038864 109.490631,132.597214 110.414833,131.086304 
	C111.104774,130.905045 111.496292,130.792999 112.355690,130.764542 
	C117.465096,130.866531 122.121391,131.090622 126.737747,130.758926 
	C127.893913,130.675873 129.807785,128.846451 129.857986,127.750229 
	C130.099945,122.469040 129.823563,117.164101 129.855164,111.606461 
	C130.124756,110.988754 130.270309,110.632179 130.415848,110.275604 
z"/>
<path fill="#859175" opacity="1.000000" stroke="none" 
	d="
M105.212158,135.632553 
	C102.760933,135.752365 100.309715,135.872177 97.452675,135.627106 
	C98.003654,133.882065 98.960449,132.501907 100.125992,130.994537 
	C100.616852,130.682068 100.809402,130.428741 101.267761,130.074066 
	C102.098526,130.018906 102.573914,129.997040 103.338150,129.997955 
	C104.076218,130.333557 104.525436,130.646378 104.889961,131.251740 
	C104.940903,132.907059 105.076530,134.269806 105.212158,135.632553 
z"/>
<path fill="#AAB0A1" opacity="1.000000" stroke="none" 
	d="
M99.917236,131.121735 
	C98.960449,132.501907 98.003654,133.882065 96.994637,135.584015 
	C96.539917,136.010635 96.137428,136.115463 95.449707,136.354095 
	C95.164490,136.487900 94.871628,136.344284 94.715286,136.316238 
	C94.132751,135.402740 93.706566,134.517273 92.969284,133.088501 
	C92.429390,132.049637 92.200600,131.554108 92.415161,131.071106 
	C95.211418,131.096329 97.564331,131.109039 99.917236,131.121735 
z"/>
<path fill="#B5B8A9" opacity="1.000000" stroke="none" 
	d="
M105.537262,135.755219 
	C105.076530,134.269806 104.940903,132.907059 105.319824,131.247696 
	C107.261719,131.019241 108.689056,131.087402 110.116402,131.155548 
	C109.490631,132.597214 108.864861,134.038864 108.071358,135.780396 
	C107.223206,136.012802 106.542786,135.945328 105.537262,135.755219 
z"/>
<path fill="#AAD080" opacity="1.000000" stroke="none" 
	d="
M114.938881,86.063881 
	C113.634872,81.719040 112.330856,77.374191 110.949692,72.692337 
	C116.188690,72.265739 121.513321,71.992119 126.814072,72.236519 
	C127.920166,72.287514 129.770264,74.194542 129.850418,75.345604 
	C130.172867,79.976837 129.935501,84.647049 129.376038,89.765732 
	C124.562248,89.160027 120.277412,88.091446 115.848557,86.830536 
	C115.482285,86.402840 115.227066,86.211395 114.938881,86.063881 
z"/>
<path fill="#5B7B40" opacity="1.000000" stroke="none" 
	d="
M115.992569,87.022865 
	C120.277412,88.091446 124.562248,89.160027 129.225098,90.226387 
	C129.762589,90.540878 129.922089,90.857590 130.178192,91.421585 
	C130.052338,94.259895 129.829880,96.850922 128.978577,99.578575 
	C124.534286,98.081879 120.718826,96.448547 116.931618,94.421471 
	C116.637444,91.692780 116.315002,89.357819 115.992569,87.022865 
z"/>
<path fill="#71914D" opacity="1.000000" stroke="none" 
	d="
M130.298309,109.829437 
	C130.270309,110.632179 130.124756,110.988754 129.484161,111.619064 
	C124.694710,113.320351 120.400314,114.747910 116.058197,116.089874 
	C116.010468,116.004280 115.912468,115.834549 115.958496,115.449860 
	C116.337120,112.709297 116.669708,110.353432 117.358536,107.939552 
	C121.411926,106.183502 125.109070,104.485458 128.806213,102.787422 
	C129.017532,102.826714 129.228867,102.866013 129.758972,102.957748 
	C130.112076,105.134529 130.146408,107.258896 130.298309,109.829437 
z"/>
<path fill="#A8CD7B" opacity="1.000000" stroke="none" 
	d="
M128.875992,102.444214 
	C125.109070,104.485458 121.411926,106.183502 117.373917,107.935379 
	C117.033043,107.989220 117.036842,107.957420 117.028252,107.498146 
	C117.002449,103.015091 116.985237,98.991318 116.960938,94.925606 
	C116.953835,94.883675 116.903358,94.815216 116.903358,94.815216 
	C120.718826,96.448547 124.534286,98.081879 128.671295,99.852646 
	C128.977142,100.693726 128.961456,101.397362 128.875992,102.444214 
z"/>
<path fill="#5C783B" opacity="1.000000" stroke="none" 
	d="
M73.154594,100.321228 
	C72.739845,98.056137 72.325096,95.791039 71.842789,93.132851 
	C71.922058,92.426796 72.068893,92.113838 72.655571,91.548080 
	C74.061874,90.862755 75.028328,90.430237 76.375519,89.967468 
	C79.772194,89.210068 82.788147,88.482918 85.865318,88.204269 
	C85.962952,90.727386 85.999352,92.802002 85.975082,95.052025 
	C85.815239,95.459328 85.652023,95.629761 85.005707,95.744659 
	C80.775963,97.274147 76.965279,98.797691 73.154594,100.321228 
z"/>
<path fill="#B3CD90" opacity="1.000000" stroke="none" 
	d="
M75.994781,89.997719 
	C75.028328,90.430237 74.061874,90.862755 72.779068,91.319115 
	C72.307426,86.099792 72.169022,80.856049 71.990150,75.613693 
	C71.891739,72.729668 73.524513,71.961708 76.057487,72.020889 
	C80.493332,72.124542 84.931404,72.133293 89.843948,72.329590 
	C89.898880,73.749779 89.478394,75.022186 88.631012,76.574875 
	C85.492310,73.287254 81.845490,74.938553 78.392082,74.915749 
	C74.368675,74.889183 73.576836,77.045364 74.073753,80.263824 
	C74.577950,83.529480 75.343628,86.754761 75.994781,89.997719 
z"/>
<path fill="#5A7A3D" opacity="1.000000" stroke="none" 
	d="
M94.750488,86.003998 
	C98.692207,85.970230 102.354370,85.960190 106.469269,85.932877 
	C107.105766,85.945366 107.289520,85.975143 107.782394,86.403358 
	C108.407913,88.821632 108.724312,90.841469 108.571861,92.902153 
	C103.082741,92.983894 98.062477,93.024796 93.031837,92.661255 
	C93.317978,90.192841 93.614494,88.128845 93.911003,86.064857 
	C94.097633,86.052483 94.284271,86.040100 94.750488,86.003998 
z"/>
<path fill="#43632A" opacity="1.000000" stroke="none" 
	d="
M109.040710,92.861313 
	C108.724312,90.841469 108.407913,88.821632 108.060959,86.422653 
	C110.046288,86.053375 112.062157,86.063225 114.508453,86.068481 
	C115.227066,86.211395 115.482285,86.402840 115.848557,86.830536 
	C116.315002,89.357819 116.637444,91.692780 116.931618,94.421478 
	C116.903358,94.815216 116.953835,94.883675 116.599747,94.859863 
	C114.111275,94.302498 111.976883,93.768944 109.640984,93.144287 
	C109.439476,93.053192 109.040718,92.861313 109.040710,92.861313 
z"/>
<path fill="#A7D17A" opacity="1.000000" stroke="none" 
	d="
M76.375519,89.967468 
	C75.343628,86.754761 74.577950,83.529480 74.073753,80.263824 
	C73.576836,77.045364 74.368675,74.889183 78.392082,74.915749 
	C81.845490,74.938553 85.492310,73.287254 88.543381,76.904495 
	C88.222496,79.981071 87.562355,83.008316 86.685120,86.572838 
	C86.200874,87.278198 85.979561,87.493416 85.804092,87.755768 
	C82.788147,88.482918 79.772194,89.210068 76.375519,89.967468 
z"/>
<path fill="#385720" opacity="1.000000" stroke="none" 
	d="
M85.865318,88.204269 
	C85.979561,87.493416 86.200874,87.278198 86.660172,86.978645 
	C88.940536,86.569176 91.028755,86.291191 93.513992,86.039032 
	C93.614494,88.128845 93.317978,90.192841 92.930023,92.867661 
	C92.838577,93.478500 92.586861,93.864235 92.211670,93.877380 
	C89.902901,94.219223 87.969330,94.547920 86.035759,94.876625 
	C85.999352,92.802002 85.962952,90.727386 85.865318,88.204269 
z"/>
<path fill="#ABD183" opacity="1.000000" stroke="none" 
	d="
M84.994255,131.075211 
	C84.552338,131.041306 84.110428,131.007385 83.338959,131.022690 
	C72.019066,130.472931 72.011520,130.472916 72.035782,119.053436 
	C72.039597,117.256203 72.146942,115.459175 72.742760,113.231178 
	C77.554970,113.811134 81.830833,114.821976 86.277481,115.926819 
	C86.448265,116.020821 86.808586,116.169769 86.843300,116.560402 
	C88.339912,121.450996 89.801811,125.950966 90.835312,130.592865 
	C88.602692,130.848282 86.798477,130.961746 84.994255,131.075211 
z"/>
<path fill="#71934D" opacity="1.000000" stroke="none" 
	d="
M86.106697,115.832809 
	C81.830833,114.821976 77.554970,113.811134 72.918961,112.778206 
	C72.378471,112.413773 72.198135,112.071426 71.911255,111.460037 
	C71.854256,108.763649 71.903793,106.336296 71.904739,103.460510 
	C72.058685,103.006035 72.261215,103.000015 73.079956,103.138962 
	C77.751884,104.788223 81.807594,106.292534 85.908897,108.093185 
	C85.967941,108.588959 85.981384,108.788391 85.979584,109.419662 
	C86.011803,111.845268 86.059250,113.839035 86.106697,115.832809 
z"/>
<path fill="#F6FAEC" opacity="1.000000" stroke="none" 
	d="
M85.066643,131.425797 
	C86.798477,130.961746 88.602692,130.848282 91.021164,130.734833 
	C91.635414,130.734863 91.971802,131.058563 91.971802,131.058563 
	C92.200600,131.554108 92.429390,132.049637 92.735054,132.811340 
	C90.254288,132.643799 87.696663,132.210083 85.066643,131.425797 
z"/>
<path fill="#A6CC7A" opacity="1.000000" stroke="none" 
	d="
M85.863297,107.796844 
	C81.807594,106.292534 77.751884,104.788223 73.383812,103.132370 
	C73.073120,102.312286 73.074791,101.643753 73.115524,100.648224 
	C76.965279,98.797691 80.775963,97.274147 84.919601,96.218506 
	C85.456131,100.389893 85.659714,104.093369 85.863297,107.796844 
z"/>
<path fill="#AAD180" opacity="1.000000" stroke="none" 
	d="
M116.105919,116.175461 
	C120.400314,114.747910 124.694710,113.320351 129.360107,111.880196 
	C129.823563,117.164101 130.099945,122.469040 129.857986,127.750229 
	C129.807785,128.846451 127.893913,130.675873 126.737747,130.758926 
	C122.121391,131.090622 117.465096,130.866531 112.416931,130.408203 
	C113.375488,125.370674 114.740707,120.773064 116.105919,116.175461 
z"/>
<path fill="#7A9E55" opacity="1.000000" stroke="none" 
	d="
M116.058197,116.089874 
	C114.740707,120.773064 113.375488,125.370674 111.949036,130.324615 
	C111.496292,130.792999 111.104774,130.905045 110.414833,131.086304 
	C108.689056,131.087402 107.261719,131.019241 105.404510,130.955139 
	C104.525436,130.646378 104.076218,130.333557 103.366684,129.640991 
	C104.715393,125.201736 106.324440,121.142227 108.349442,117.056061 
	C111.147751,116.631111 113.530106,116.232834 115.912468,115.834549 
	C115.912468,115.834549 116.010468,116.004280 116.058197,116.089874 
z"/>
<path fill="#688946" opacity="1.000000" stroke="none" 
	d="
M92.415161,131.071106 
	C91.971802,131.058563 91.635414,130.734863 91.449570,130.592896 
	C89.801811,125.950966 88.339912,121.450996 87.252228,116.546448 
	C89.769989,116.431755 91.913536,116.721649 94.321579,117.013000 
	C94.762222,117.022324 94.938377,117.030197 95.114891,117.404839 
	C97.047630,121.883522 98.980011,125.995453 100.912392,130.107376 
	C100.809402,130.428741 100.616852,130.682068 100.125992,130.994537 
	C97.564331,131.109039 95.211418,131.096329 92.415161,131.071106 
z"/>
<path fill="#A6CB78" opacity="1.000000" stroke="none" 
	d="
M101.267761,130.074066 
	C98.980011,125.995453 97.047630,121.883522 95.566696,117.394974 
	C100.003326,117.021980 103.988503,117.025612 107.961075,117.040016 
	C107.948479,117.050789 107.933487,117.082718 107.933487,117.082718 
	C106.324440,121.142227 104.715393,125.201736 103.077827,129.618195 
	C102.573914,129.997040 102.098526,130.018906 101.267761,130.074066 
z"/>
<path fill="#4F7232" opacity="1.000000" stroke="none" 
	d="
M115.958496,115.449860 
	C113.530106,116.232834 111.147751,116.631111 108.349442,117.056061 
	C107.933487,117.082718 107.948479,117.050789 108.018402,116.653442 
	C108.415222,114.217911 108.742119,112.179718 109.259140,110.056625 
	C109.449257,109.971725 109.812073,109.767334 110.186676,109.791016 
	C112.719803,109.195610 114.878326,108.576515 117.036842,107.957420 
	C117.036842,107.957420 117.033043,107.989220 117.017670,107.993393 
	C116.669708,110.353432 116.337120,112.709297 115.958496,115.449860 
z"/>
<path fill="#789D53" opacity="1.000000" stroke="none" 
	d="
M117.028252,107.498146 
	C114.878326,108.576515 112.719803,109.195610 110.232849,109.348022 
	C109.883774,103.666023 109.863136,98.450699 109.842499,93.235382 
	C111.976883,93.768944 114.111275,94.302498 116.606850,94.901794 
	C116.985237,98.991318 117.002449,103.015091 117.028252,107.498146 
z"/>
<path fill="#698A45" opacity="1.000000" stroke="none" 
	d="
M85.908897,108.093185 
	C85.659714,104.093369 85.456131,100.389893 85.338661,96.212570 
	C85.652023,95.629761 85.815239,95.459328 85.975082,95.052025 
	C87.969330,94.547920 89.902901,94.219223 92.301849,94.292053 
	C92.678482,99.524590 92.589745,104.355598 92.111038,109.140800 
	C89.812317,109.059273 87.903564,109.023552 85.994820,108.987823 
	C85.981384,108.788391 85.967941,108.588959 85.908897,108.093185 
z"/>
<path fill="#A6D07A" opacity="1.000000" stroke="none" 
	d="
M92.501007,109.186600 
	C92.589745,104.355598 92.678482,99.524590 92.677040,94.278915 
	C92.586861,93.864235 92.838577,93.478500 92.940392,93.272095 
	C98.062477,93.024796 103.082741,92.983894 108.571869,92.902153 
	C109.040718,92.861313 109.439476,93.053192 109.640991,93.144287 
	C109.863136,98.450699 109.883774,103.666023 109.858246,109.324341 
	C109.812073,109.767334 109.449257,109.971725 108.831711,110.008316 
	C103.142250,110.032143 98.070343,110.019371 92.894653,109.789124 
	C92.790871,109.571640 92.501007,109.186600 92.501007,109.186600 
z"/>
<path fill="#43632A" opacity="1.000000" stroke="none" 
	d="
M92.111038,109.140800 
	C92.501007,109.186600 92.790871,109.571640 92.891899,110.187737 
	C93.347649,112.873070 93.702370,114.942307 94.057091,117.011551 
	C91.913536,116.721649 89.769989,116.431755 87.217514,116.155815 
	C86.808586,116.169769 86.448265,116.020821 86.277481,115.926819 
	C86.059250,113.839035 86.011803,111.845268 85.979584,109.419662 
	C87.903564,109.023552 89.812317,109.059273 92.111038,109.140800 
z"/>
<path fill="#6C9248" opacity="1.000000" stroke="none" 
	d="
M94.321579,117.013000 
	C93.702370,114.942307 93.347649,112.873070 92.995682,110.405212 
	C98.070343,110.019371 103.142250,110.032143 108.641586,110.093216 
	C108.742119,112.179718 108.415222,114.217911 108.031006,116.642670 
	C103.988503,117.025612 100.003326,117.021980 95.566345,117.028214 
	C94.938377,117.030197 94.762222,117.022324 94.321579,117.013000 
z"/>
</svg>