<svg version="1.1" id="Layer_1" xmlns="http://www.w3.org/2000/svg" xmlns:xlink="http://www.w3.org/1999/xlink" x="0px" y="0px"
	 width="100%" viewBox="0 0 276 183" enable-background="new 0 0 276 183" xml:space="preserve">
<path fill="#FEFEFE" opacity="1.000000" stroke="none" 
	d="
M277.000000,102.000000 
	C277.000000,129.305435 277.000000,156.610870 277.000000,183.958160 
	C185.121826,183.958160 93.243622,183.958160 1.000000,183.958160 
	C1.000000,160.647049 1.000000,137.292175 1.386468,113.455856 
	C4.486629,112.404610 7.200323,111.834824 9.914016,111.265038 
	C10.015110,111.635689 10.116204,112.006340 10.217299,112.376984 
	C11.406271,111.289948 12.595244,110.202919 13.827716,109.076111 
	C13.125494,107.888191 12.550684,106.915802 12.016715,105.714127 
	C12.057556,105.484825 12.171795,105.033203 12.531707,105.005112 
	C13.370598,104.929543 13.849576,104.882050 14.618695,105.007355 
	C15.106076,105.628456 15.195867,106.356255 15.517861,106.480042 
	C17.740330,107.334435 20.148451,108.872429 22.214115,108.522301 
	C23.416271,108.318535 24.923637,104.981026 24.829504,103.127930 
	C24.653027,99.653877 21.598551,99.671219 18.925529,100.033180 
	C17.674755,100.202538 16.475365,100.751381 14.829859,101.101852 
	C12.998398,101.047630 11.589764,101.019791 10.063292,100.706955 
	C9.563345,99.948662 9.181238,99.475349 8.874125,98.626434 
	C9.436560,94.716949 11.482522,92.955338 15.103542,93.188744 
	C15.803895,93.837769 16.431759,94.200394 17.429949,94.651077 
	C18.555290,94.683250 19.310307,94.627373 20.420343,94.689621 
	C22.389479,95.399796 24.003593,95.991859 26.055901,96.744644 
	C25.092056,91.204536 24.750179,86.189392 31.236435,83.982735 
	C32.110245,83.585632 32.702824,83.153755 33.630058,82.632973 
	C34.523834,82.165215 35.082947,81.786362 35.883980,81.404327 
	C36.439564,81.302429 36.744545,81.181755 37.401451,81.004730 
	C38.316628,79.138504 39.892250,76.561440 39.212677,75.630363 
	C37.808495,73.706474 35.351448,72.135628 33.027714,71.476784 
	C31.897209,71.156258 29.977905,73.080826 28.629793,74.238411 
	C27.592266,75.129311 26.889194,76.409714 25.796131,77.224365 
	C24.499189,73.585083 22.667391,70.681824 18.858141,72.833092 
	C16.887081,73.946236 14.502227,77.075974 14.799749,78.883980 
	C15.417503,82.637985 18.623520,83.871986 22.436808,82.284348 
	C23.017439,82.042610 23.734863,82.129456 24.378143,82.635727 
	C24.442757,83.580582 24.518238,83.954041 24.504700,84.376198 
	C24.415682,84.424904 24.247530,84.538544 23.953140,84.422348 
	C23.036411,84.765221 22.414070,85.224289 21.408360,85.732323 
	C18.349909,86.937637 15.674829,88.093987 12.785116,88.980606 
	C10.821344,86.846176 7.362515,85.624084 10.039405,82.040649 
	C10.000203,82.000206 10.081304,82.078232 10.381093,81.946747 
	C13.537721,78.626328 12.750239,75.087830 10.156610,72.785706 
	C9.032267,71.787735 5.643018,73.104393 3.384612,73.735184 
	C2.451662,73.995766 1.786793,75.216141 0.999999,76.000000 
	C1.000000,51.025162 1.000000,26.050323 1.000000,1.037743 
	C92.882233,1.037743 184.764481,1.037743 277.000000,1.037743 
	C277.000000,28.686560 277.000000,56.374622 276.680420,84.933350 
	C273.834045,85.348083 271.307251,84.892136 268.822296,84.443748 
	C267.975403,79.180939 267.975403,79.180939 265.590790,79.285118 
	C264.822906,81.611389 263.600800,83.756721 263.531342,85.938751 
	C263.453522,88.383545 264.805176,90.852737 264.861664,93.326675 
	C265.070984,102.496529 268.154114,104.789795 277.000000,102.000000 
M28.276142,104.282394 
	C28.463120,108.055168 30.873928,109.976021 34.129547,109.118126 
	C35.760235,108.688423 37.826195,105.747551 37.810619,103.958824 
	C37.745457,96.476097 31.675686,100.437569 27.494600,98.694244 
	C28.311998,100.375572 28.717279,101.209213 29.034576,102.685699 
	C28.985771,103.114349 28.936964,103.543007 28.276142,104.282394 
M212.165268,100.765938 
	C209.179428,100.186333 206.193573,99.606720 203.953506,99.011955 
	C205.300690,98.666405 206.647873,98.320854 208.601410,97.513863 
	C212.805984,96.865204 216.286423,95.518333 216.069565,90.262093 
	C215.950867,87.385490 216.006332,84.501701 215.979233,81.117126 
	C215.706604,81.271645 214.837219,81.727531 214.005569,82.244164 
	C212.664154,83.077492 211.447083,84.384727 209.999725,84.716660 
	C207.016708,85.400787 203.916351,85.573242 200.204453,86.081261 
	C196.308441,90.342903 199.975983,94.094154 200.887177,98.804008 
	C200.693008,99.908943 200.809601,101.210403 200.254990,102.087402 
	C196.198166,108.502434 197.247833,110.679848 205.616058,112.119507 
	C208.552780,111.510689 211.489517,110.901871 214.811279,110.210190 
	C214.811279,110.210190 215.180283,110.072487 215.930466,110.036385 
	C219.847778,108.748833 219.548828,105.418053 218.479584,102.845490 
	C217.971558,101.623154 214.947815,101.446434 212.165268,100.765938 
M249.156937,84.952248 
	C246.995728,84.809586 244.834518,84.666931 242.089600,84.485741 
	C242.089600,89.894531 242.012161,95.169319 242.172058,100.436920 
	C242.196411,101.238617 243.320999,102.006912 243.936691,102.790649 
	C244.441208,101.899757 245.244354,101.052948 245.383835,100.108170 
	C245.623795,98.482773 245.678146,96.757851 245.405701,95.142982 
	C244.696487,90.939285 246.244507,88.161171 250.966232,86.614258 
	C255.275574,85.970558 257.135406,87.768234 256.982330,92.167023 
	C256.858307,95.730759 257.210266,99.311058 257.351105,102.884010 
	C258.230164,102.863899 259.109192,102.843796 259.988251,102.823685 
	C259.988251,98.706856 260.115692,94.585136 259.958099,90.474350 
	C259.727203,84.451210 255.735336,82.341965 249.156937,84.952248 
M123.186249,97.162758 
	C121.561470,93.780083 120.043053,90.339752 118.256447,87.044815 
	C117.597160,85.828949 116.306015,84.955688 115.303062,83.926170 
	C114.845215,84.320450 114.387375,84.714729 113.929527,85.109009 
	C115.873108,89.754784 117.816681,94.400566 119.786316,99.818977 
	C120.849594,100.858185 121.912865,101.897392 122.976151,102.936607 
	C123.871780,101.918884 125.059586,101.036392 125.605568,99.856827 
	C126.974518,96.899239 128.052948,93.807182 129.834595,89.277390 
	C131.612961,93.990334 132.751007,97.401077 134.221695,100.661797 
	C134.659149,101.631699 135.954895,102.586037 137.000137,102.780647 
	C137.706223,102.912102 139.115936,101.876465 139.430847,101.061455 
	C141.134857,96.651428 142.671509,92.170921 144.071747,87.654533 
	C144.330551,86.819756 143.699509,85.709091 143.479172,84.725761 
	C143.092300,84.669701 142.705444,84.613640 142.318573,84.557579 
	C140.553177,89.048210 138.787781,93.538841 136.727142,98.780457 
	C135.656036,95.965714 134.923264,94.114723 134.247467,92.243156 
	C133.568878,90.363800 133.127579,88.371994 132.229691,86.609047 
	C131.726212,85.620476 130.598969,84.595901 129.576538,84.363792 
	C129.003540,84.233696 127.704620,85.549698 127.365578,86.451927 
	C126.082748,89.865646 125.058708,93.376617 123.186249,97.162758 
M47.611183,99.008614 
	C47.727459,100.313942 47.843735,101.619270 47.960011,102.924599 
	C48.520329,102.928986 49.080650,102.933365 49.640972,102.937744 
	C49.784283,101.243851 49.995148,99.552277 50.053692,97.855461 
	C50.125774,95.766327 50.070904,93.672813 50.070904,91.833702 
	C54.884720,90.219894 57.698112,91.780487 59.700054,95.543434 
	C60.708900,97.439705 61.949669,99.273270 63.391788,100.856201 
	C64.296494,101.849243 65.770027,102.324066 66.988342,103.031395 
	C67.258034,102.695587 67.527718,102.359779 67.797409,102.023972 
	C66.036346,99.465668 64.490158,96.719658 62.460392,94.396080 
	C59.863586,91.423378 59.387463,88.934074 62.346817,85.848434 
	C64.340103,83.770088 65.738617,81.121300 67.705276,78.293335 
	C62.509163,77.430656 61.865608,81.661064 60.309399,83.969566 
	C57.768227,87.739166 55.037632,89.723358 50.170639,87.977402 
	C50.170639,84.868309 50.170639,81.646767 50.170639,78.274704 
	C47.621803,79.698975 47.621803,79.698975 47.611183,99.008614 
M182.264694,102.338348 
	C184.717743,102.562653 187.167084,102.910225 189.624649,102.983856 
	C193.862061,103.110817 195.353577,101.048103 195.056015,96.768578 
	C194.675583,91.297455 194.990219,85.780022 194.924606,80.283508 
	C194.909042,78.979385 194.572250,77.679092 194.383224,76.377037 
	C193.796951,76.335205 193.210663,76.293373 192.624374,76.251541 
	C192.090866,78.873169 191.557358,81.494797 191.011688,84.176125 
	C185.396530,83.615288 180.098099,83.246216 177.550049,89.370178 
	C175.633148,93.977234 177.166336,98.519348 182.264694,102.338348 
M170.997620,102.512764 
	C171.764053,101.845490 172.530472,101.178215 174.157471,99.761719 
	C160.930969,100.518082 160.423447,100.323143 159.420929,94.174149 
	C163.863297,94.174149 168.243912,94.174149 172.575699,94.174149 
	C173.765793,90.441772 174.508667,86.613258 170.979660,85.351128 
	C167.720200,84.185425 163.183731,83.956139 160.227631,85.399391 
	C157.807144,86.581146 155.717255,90.758072 155.530334,93.735855 
	C155.078491,100.934525 160.667206,104.023773 170.997620,102.512764 
M229.005539,103.157021 
	C235.489273,103.084717 236.077042,102.867317 237.527771,100.004913 
	C224.690125,99.807953 224.635864,99.785378 224.136307,94.070595 
	C226.967346,94.070595 229.779358,94.181450 232.578033,94.035751 
	C234.844147,93.917778 237.923996,95.082230 238.226196,91.074478 
	C238.505402,87.371643 236.902054,85.018425 233.296051,84.068901 
	C227.231949,82.472115 221.652008,85.425545 220.287003,90.947403 
	C218.864227,96.702896 221.907242,101.328575 229.005539,103.157021 
M88.543152,87.058739 
	C86.737419,83.523415 83.553307,83.702164 80.332893,84.038460 
	C77.579193,84.326019 74.831017,84.666397 72.021782,84.990166 
	C72.021782,90.670288 72.021782,96.742775 72.021782,102.815269 
	C72.725731,102.856384 73.429688,102.897499 74.133636,102.938614 
	C74.284393,100.443161 74.547363,97.948441 74.563881,95.452103 
	C74.605751,89.121910 76.635071,86.355392 81.652695,86.638260 
	C87.813126,86.985558 85.726036,91.905106 86.102066,95.355820 
	C86.281105,96.998825 86.001671,98.693405 86.199402,100.332115 
	C86.308655,101.237625 86.974945,102.075928 87.390129,102.944527 
	C87.852394,102.850647 88.314659,102.756775 88.776924,102.662895 
	C88.776924,97.722008 88.776924,92.781120 88.543152,87.058739 
M103.344681,103.261223 
	C109.761261,101.981369 112.564644,99.021370 112.567307,93.523354 
	C112.569878,88.212097 109.879517,84.816391 104.990845,83.960510 
	C99.080154,82.925705 94.321465,85.908020 93.320312,91.274529 
	C92.115746,97.731483 95.436539,102.024612 103.344681,103.261223 
M148.289566,81.826042 
	C148.287872,85.462395 148.083221,89.113350 148.343475,92.730858 
	C148.587341,96.120308 147.009613,99.965057 150.135010,103.490318 
	C152.362411,97.134613 151.760666,78.753731 148.887543,75.827301 
	C148.638138,77.914497 148.457886,79.423012 148.289566,81.826042 
M28.061804,91.390694 
	C28.635351,92.352478 28.989035,93.785439 29.828573,94.177185 
	C31.535477,94.973656 33.947906,96.093307 35.249928,95.441780 
	C36.760529,94.685875 38.493584,91.880295 38.127182,90.493660 
	C37.660324,88.726868 34.963955,86.125832 33.629620,86.343407 
	C31.600645,86.674240 29.916189,89.117958 28.061804,91.390694 
z"/>
<path fill="#5D5D5D" opacity="1.000000" stroke="none" 
	d="
M277.000000,101.750000 
	C268.154114,104.789795 265.070984,102.496529 264.861664,93.326675 
	C264.805176,90.852737 263.453522,88.383545 263.531342,85.938751 
	C263.600800,83.756721 264.822906,81.611389 265.590790,79.285118 
	C267.975403,79.180939 267.975403,79.180939 268.822296,84.443748 
	C271.307251,84.892136 273.834045,85.348083 276.680420,85.402008 
	C277.000000,85.444443 277.000000,85.888893 276.730469,86.201736 
	C273.888397,86.534805 271.315857,86.999466 268.758301,87.461411 
	C267.222504,98.337959 267.425232,98.669662 277.000000,101.000000 
	C277.000000,101.000000 277.000000,101.500000 277.000000,101.750000 
z"/>
<path fill="#E1A77F" opacity="1.000000" stroke="none" 
	d="
M0.999999,76.463181 
	C1.786793,75.216141 2.451662,73.995766 3.384612,73.735184 
	C5.643018,73.104393 9.032267,71.787735 10.156610,72.785706 
	C12.750239,75.087830 13.537721,78.626328 10.370015,81.569366 
	C10.142162,79.725716 10.745401,77.885971 10.149156,76.604172 
	C9.641232,75.512253 7.033441,74.157692 6.608222,74.495811 
	C5.255351,75.571594 4.487714,77.383362 3.493948,78.910744 
	C5.688833,79.967529 7.883719,81.024307 10.078606,82.081085 
	C7.362515,85.624084 10.821344,86.846176 12.824545,89.248718 
	C13.088623,89.967010 13.098640,90.147446 12.737727,90.234558 
	C10.327740,89.263840 8.288682,88.386444 6.348671,87.551659 
	C4.914949,88.413734 3.531611,89.245522 2.040445,89.816025 
	C1.621745,89.369835 1.310873,89.184921 1.000000,89.000000 
	C1.000000,84.975456 1.000000,80.950912 0.999999,76.463181 
z"/>
<path fill="#FEFEFE" opacity="1.000000" stroke="none" 
	d="
M277.000000,100.535355 
	C267.425232,98.669662 267.222504,98.337959 268.758301,87.461411 
	C271.315857,86.999466 273.888397,86.534805 276.730469,86.535072 
	C277.000000,91.356903 277.000000,95.713799 277.000000,100.535355 
z"/>
<path fill="#E8E8E8" opacity="1.000000" stroke="none" 
	d="
M1.000000,89.468636 
	C1.310873,89.184921 1.621745,89.369835 1.965086,90.195992 
	C3.003374,93.546806 4.009193,96.256393 4.700827,99.135544 
	C3.336202,102.549385 -0.189968,106.457275 5.755670,108.193161 
	C7.464471,108.692047 9.882839,106.760582 11.975874,105.943420 
	C12.550684,106.915802 13.125494,107.888191 13.827716,109.076111 
	C12.595244,110.202919 11.406271,111.289948 10.217299,112.376984 
	C10.116204,112.006340 10.015110,111.635689 9.914016,111.265038 
	C7.200323,111.834824 4.486629,112.404610 1.386468,112.987198 
	C1.000000,105.312424 1.000000,97.624847 1.000000,89.468636 
z"/>
<path fill="#646463" opacity="1.000000" stroke="none" 
	d="
M47.599094,98.564117 
	C47.621803,79.698975 47.621803,79.698975 50.170639,78.274704 
	C50.170639,81.646767 50.170639,84.868309 50.170639,87.977402 
	C55.037632,89.723358 57.768227,87.739166 60.309399,83.969566 
	C61.865608,81.661064 62.509163,77.430656 67.705276,78.293335 
	C65.738617,81.121300 64.340103,83.770088 62.346817,85.848434 
	C59.387463,88.934074 59.863586,91.423378 62.460392,94.396080 
	C64.490158,96.719658 66.036346,99.465668 67.797409,102.023972 
	C67.527718,102.359779 67.258034,102.695587 66.988342,103.031395 
	C65.770027,102.324066 64.296494,101.849243 63.391788,100.856201 
	C61.949669,99.273270 60.708900,97.439705 59.700054,95.543434 
	C57.698112,91.780487 54.884720,90.219894 50.070904,91.833702 
	C50.070904,93.672813 50.125774,95.766327 50.053692,97.855461 
	C49.995148,99.552277 49.784283,101.243851 49.640972,102.937744 
	C49.080650,102.933365 48.520329,102.928986 47.960011,102.924599 
	C47.843735,101.619270 47.727459,100.313942 47.599094,98.564117 
z"/>
<path fill="#6D6D6D" opacity="1.000000" stroke="none" 
	d="
M181.928329,102.166931 
	C177.166336,98.519348 175.633148,93.977234 177.550049,89.370178 
	C180.098099,83.246216 185.396530,83.615288 191.011688,84.176125 
	C191.557358,81.494797 192.090866,78.873169 192.624374,76.251541 
	C193.210663,76.293373 193.796951,76.335205 194.383224,76.377037 
	C194.572250,77.679092 194.909042,78.979385 194.924606,80.283508 
	C194.990219,85.780022 194.675583,91.297455 195.056015,96.768578 
	C195.353577,101.048103 193.862061,103.110817 189.624649,102.983856 
	C187.167084,102.910225 184.717743,102.562653 181.928329,102.166931 
M182.420486,99.131279 
	C189.874619,102.608688 192.033829,101.094215 191.940552,92.401138 
	C191.915039,90.023994 192.638992,87.204208 188.928879,86.735062 
	C185.639008,86.319054 182.009491,86.395172 181.022903,89.951195 
	C180.296326,92.570076 181.478836,95.718620 182.420486,99.131279 
z"/>
<path fill="#686868" opacity="1.000000" stroke="none" 
	d="
M123.937836,96.851196 
	C125.058708,93.376617 126.082748,89.865646 127.365578,86.451927 
	C127.704620,85.549698 129.003540,84.233696 129.576538,84.363792 
	C130.598969,84.595901 131.726212,85.620476 132.229691,86.609047 
	C133.127579,88.371994 133.568878,90.363800 134.247467,92.243156 
	C134.923264,94.114723 135.656036,95.965714 136.727142,98.780457 
	C138.787781,93.538841 140.553177,89.048210 142.318573,84.557579 
	C142.705444,84.613640 143.092300,84.669701 143.479172,84.725761 
	C143.699509,85.709091 144.330551,86.819756 144.071747,87.654533 
	C142.671509,92.170921 141.134857,96.651428 139.430847,101.061455 
	C139.115936,101.876465 137.706223,102.912102 137.000137,102.780647 
	C135.954895,102.586037 134.659149,101.631699 134.221695,100.661797 
	C132.751007,97.401077 131.612961,93.990334 129.834595,89.277390 
	C128.052948,93.807182 126.974518,96.899239 125.605568,99.856827 
	C125.059586,101.036392 123.871780,101.918884 122.976151,102.936600 
	C121.912865,101.897392 120.849594,100.858185 120.179733,99.423187 
	C121.694710,98.301994 122.816277,97.576591 123.937836,96.851196 
z"/>
<path fill="#6D6D6D" opacity="1.000000" stroke="none" 
	d="
M170.613708,102.589890 
	C160.667206,104.023773 155.078491,100.934525 155.530334,93.735855 
	C155.717255,90.758072 157.807144,86.581146 160.227631,85.399391 
	C163.183731,83.956139 167.720200,84.185425 170.979660,85.351128 
	C174.508667,86.613258 173.765793,90.441772 172.575699,94.174149 
	C168.243912,94.174149 163.863297,94.174149 159.420929,94.174149 
	C160.423447,100.323143 160.930969,100.518082 174.157471,99.761719 
	C172.530472,101.178215 171.764053,101.845490 170.613708,102.589890 
M170.271271,89.627228 
	C168.398880,88.501335 166.498047,86.443947 164.661743,86.500008 
	C162.648041,86.561478 160.693832,88.572281 158.713699,89.733643 
	C158.999802,90.477570 159.285919,91.221497 159.572021,91.965424 
	C163.083023,91.459091 166.594040,90.952751 170.271271,89.627228 
z"/>
<path fill="#6D6D6D" opacity="1.000000" stroke="none" 
	d="
M228.625717,103.101379 
	C221.907242,101.328575 218.864227,96.702896 220.287003,90.947403 
	C221.652008,85.425545 227.231949,82.472115 233.296051,84.068901 
	C236.902054,85.018425 238.505402,87.371643 238.226196,91.074478 
	C237.923996,95.082230 234.844147,93.917778 232.578033,94.035751 
	C229.779358,94.181450 226.967346,94.070595 224.136307,94.070595 
	C224.635864,99.785378 224.690125,99.807953 237.527771,100.004913 
	C236.077042,102.867317 235.489273,103.084717 228.625717,103.101379 
M233.511139,87.060135 
	C227.669647,85.574081 225.270065,86.652542 224.207809,91.642494 
	C226.920547,91.642494 229.544815,91.614304 232.168243,91.649307 
	C235.825851,91.698112 235.539993,89.898170 233.511139,87.060135 
z"/>
<path fill="#6D6D6D" opacity="1.000000" stroke="none" 
	d="
M88.660034,87.449486 
	C88.776924,92.781120 88.776924,97.722008 88.776924,102.662895 
	C88.314659,102.756775 87.852394,102.850647 87.390129,102.944527 
	C86.974945,102.075928 86.308655,101.237625 86.199402,100.332115 
	C86.001671,98.693405 86.281105,96.998825 86.102066,95.355820 
	C85.726036,91.905106 87.813126,86.985558 81.652695,86.638260 
	C76.635071,86.355392 74.605751,89.121910 74.563881,95.452103 
	C74.547363,97.948441 74.284393,100.443161 74.133636,102.938614 
	C73.429688,102.897499 72.725731,102.856384 72.021782,102.815269 
	C72.021782,96.742775 72.021782,90.670288 72.021782,84.990166 
	C74.831017,84.666397 77.579193,84.326019 80.332893,84.038460 
	C83.553307,83.702164 86.737419,83.523415 88.660034,87.449486 
z"/>
<path fill="#6D6D6D" opacity="1.000000" stroke="none" 
	d="
M102.973938,103.268341 
	C95.436539,102.024612 92.115746,97.731483 93.320312,91.274529 
	C94.321465,85.908020 99.080154,82.925705 104.990845,83.960510 
	C109.879517,84.816391 112.569878,88.212097 112.567307,93.523354 
	C112.564644,99.021370 109.761261,101.981369 102.973938,103.268341 
M105.125481,100.182564 
	C109.272453,97.599205 110.815407,92.887543 108.380043,89.331581 
	C106.238777,86.205048 103.199432,85.295090 99.704277,87.161118 
	C96.439018,88.904396 94.836746,93.945824 97.304939,97.041122 
	C98.758232,98.863647 101.911797,99.330368 105.125481,100.182564 
z"/>
<path fill="#E8E8E8" opacity="1.000000" stroke="none" 
	d="
M201.010300,98.023094 
	C199.975983,94.094154 196.308441,90.342903 200.547638,86.409843 
	C202.014679,86.830383 203.281219,87.303673 204.236832,86.946083 
	C207.745056,85.633308 211.250519,85.735474 212.808121,89.234543 
	C214.750504,93.598022 210.878036,94.800240 207.710754,95.973068 
	C207.227753,96.151917 206.736343,96.308014 205.653625,96.678040 
	C206.872635,97.353432 207.433853,97.664368 207.995056,97.975296 
	C206.647873,98.320854 205.300690,98.666405 203.436813,98.708405 
	C202.283508,98.277603 201.646912,98.150352 201.010300,98.023094 
z"/>
<path fill="#DA7F45" opacity="1.000000" stroke="none" 
	d="
M13.108657,90.327881 
	C13.098640,90.147446 13.088623,89.967010 13.039177,89.518456 
	C15.674829,88.093987 18.349909,86.937637 21.706568,85.838120 
	C23.007942,85.442810 23.627737,84.990677 24.247532,84.538544 
	C24.247530,84.538544 24.415682,84.424904 24.834587,84.326324 
	C26.527386,82.118599 28.223637,80.150589 28.985537,77.870377 
	C30.482019,73.391716 32.592266,72.347137 35.684517,74.993057 
	C31.918413,75.362595 30.656218,77.427132 30.495070,80.688103 
	C32.394833,80.953636 34.018448,81.180573 35.642063,81.407509 
	C35.082947,81.786362 34.523834,82.165215 33.334877,82.462616 
	C32.121754,82.903435 31.538475,83.425690 30.955198,83.947952 
	C24.750179,86.189392 25.092056,91.204536 26.055901,96.744644 
	C24.003593,95.991859 22.389479,95.399796 20.580658,94.413651 
	C20.882494,90.683472 19.531345,89.530228 16.250229,90.344048 
	C15.264988,90.588425 14.159213,90.346840 13.108657,90.327881 
z"/>
<path fill="#6D6D6D" opacity="1.000000" stroke="none" 
	d="
M148.283600,81.378784 
	C148.457886,79.423012 148.638138,77.914497 148.887543,75.827301 
	C151.760666,78.753731 152.362411,97.134613 150.135010,103.490318 
	C147.009613,99.965057 148.587341,96.120308 148.343475,92.730858 
	C148.083221,89.113350 148.287872,85.462395 148.283600,81.378784 
z"/>
<path fill="#DE6B32" opacity="1.000000" stroke="none" 
	d="
M12.737727,90.234558 
	C14.159213,90.346840 15.264988,90.588425 16.250229,90.344048 
	C19.531345,89.530228 20.882494,90.683472 20.225639,94.295532 
	C19.310307,94.627373 18.555290,94.683250 17.428257,94.356033 
	C16.381176,93.616081 15.706115,93.259209 15.031054,92.902344 
	C11.482522,92.955338 9.436560,94.716949 8.495306,98.637321 
	C7.032665,99.004539 6.023839,98.985260 5.015012,98.965973 
	C4.009193,96.256393 3.003374,93.546806 2.072914,90.457260 
	C3.531611,89.245522 4.914949,88.413734 6.348671,87.551659 
	C8.288682,88.386444 10.327740,89.263840 12.737727,90.234558 
z"/>
<path fill="#B9BAB7" opacity="1.000000" stroke="none" 
	d="
M24.389015,82.064316 
	C23.734863,82.129456 23.017439,82.042610 22.436808,82.284348 
	C18.623520,83.871986 15.417503,82.637985 14.799749,78.883980 
	C14.502227,77.075974 16.887081,73.946236 18.858141,72.833092 
	C22.667391,70.681824 24.499189,73.585083 25.782585,77.377007 
	C26.000885,78.038895 25.993999,78.255653 25.870983,78.862793 
	C25.661165,79.509331 25.570017,79.765572 25.364897,80.205124 
	C24.963621,80.947060 24.676317,81.505692 24.389015,82.064316 
z"/>
<path fill="#646463" opacity="1.000000" stroke="none" 
	d="
M15.252686,101.128235 
	C16.475365,100.751381 17.674755,100.202538 18.925529,100.033180 
	C21.598551,99.671219 24.653027,99.653877 24.829504,103.127930 
	C24.923637,104.981026 23.416271,108.318535 22.214115,108.522301 
	C20.148451,108.872429 17.740330,107.334435 15.517861,106.480042 
	C15.195867,106.356255 15.106076,105.628456 14.652658,104.684235 
	C14.681882,103.168282 14.967284,102.148254 15.252686,101.128235 
z"/>
<path fill="#757575" opacity="1.000000" stroke="none" 
	d="
M250.197433,86.667404 
	C246.244507,88.161171 244.696487,90.939285 245.405701,95.142982 
	C245.678146,96.757851 245.623795,98.482773 245.383835,100.108170 
	C245.244354,101.052948 244.441208,101.899757 243.936691,102.790657 
	C243.320999,102.006912 242.196411,101.238617 242.172058,100.436920 
	C242.012161,95.169319 242.089600,89.894531 242.089600,84.485741 
	C244.834518,84.666931 246.995728,84.809586 249.619293,85.412491 
	C250.120239,86.137627 250.158844,86.402519 250.197433,86.667404 
z"/>
<path fill="#87898A" opacity="1.000000" stroke="none" 
	d="
M28.073605,91.027481 
	C29.916189,89.117958 31.600645,86.674240 33.629620,86.343407 
	C34.963955,86.125832 37.660324,88.726868 38.127182,90.493660 
	C38.493584,91.880295 36.760529,94.685875 35.249928,95.441780 
	C33.947906,96.093307 31.535477,94.973656 29.828573,94.177185 
	C28.989035,93.785439 28.635351,92.352478 28.073605,91.027481 
z"/>
<path fill="#5D5D5D" opacity="1.000000" stroke="none" 
	d="
M208.298233,97.744583 
	C207.433853,97.664368 206.872635,97.353432 205.653625,96.678040 
	C206.736343,96.308014 207.227753,96.151917 207.710754,95.973068 
	C210.878036,94.800240 214.750504,93.598022 212.808121,89.234543 
	C211.250519,85.735474 207.745056,85.633308 204.236832,86.946083 
	C203.281219,87.303673 202.014679,86.830383 200.877563,86.347321 
	C203.916351,85.573242 207.016708,85.400787 209.999725,84.716660 
	C211.447083,84.384727 212.664154,83.077492 214.005569,82.244164 
	C214.837219,81.727531 215.706604,81.271645 215.979233,81.117126 
	C216.006332,84.501701 215.950867,87.385490 216.069565,90.262093 
	C216.286423,95.518333 212.805984,96.865204 208.298233,97.744583 
z"/>
<path fill="#5D5D5D" opacity="1.000000" stroke="none" 
	d="
M200.948730,98.413551 
	C201.646912,98.150352 202.283508,98.277603 203.063934,98.715988 
	C206.193573,99.606720 209.179428,100.186333 212.731964,101.146935 
	C217.960373,103.134956 218.384003,105.058693 215.180283,110.072487 
	C215.180283,110.072487 214.811279,110.210190 214.295212,110.052910 
	C213.468353,109.505455 213.157562,109.115288 213.040115,108.441360 
	C216.064697,105.131363 215.162704,103.503510 211.281754,103.145493 
	C209.636719,102.993744 207.852051,102.713036 206.338333,103.173294 
	C204.173889,103.831421 202.199860,105.115768 200.144531,106.132690 
	C202.103104,107.397285 204.061676,108.661873 205.936584,110.167122 
	C205.587112,110.841019 205.321304,111.274261 205.055511,111.707504 
	C197.247833,110.679848 196.198166,108.502434 200.254990,102.087402 
	C200.809601,101.210403 200.693008,99.908943 200.948730,98.413551 
z"/>
<path fill="#6D6D6D" opacity="1.000000" stroke="none" 
	d="
M250.581833,86.640831 
	C250.158844,86.402519 250.120239,86.137627 250.044250,85.472954 
	C255.735336,82.341965 259.727203,84.451210 259.958099,90.474350 
	C260.115692,94.585136 259.988251,98.706856 259.988251,102.823685 
	C259.109192,102.843796 258.230164,102.863899 257.351105,102.884010 
	C257.210266,99.311058 256.858307,95.730759 256.982330,92.167023 
	C257.135406,87.768234 255.275574,85.970558 250.581833,86.640831 
z"/>
<path fill="#CB2928" opacity="1.000000" stroke="none" 
	d="
M4.700827,99.135544 
	C6.023839,98.985260 7.032665,99.004539 8.420311,99.012939 
	C9.181238,99.475349 9.563345,99.948662 10.083515,101.039780 
	C10.871651,102.782799 11.521723,103.907997 12.171795,105.033203 
	C12.171795,105.033203 12.057556,105.484825 12.016714,105.714127 
	C9.882839,106.760582 7.464471,108.692047 5.755670,108.193161 
	C-0.189968,106.457275 3.336202,102.549385 4.700827,99.135544 
z"/>
<path fill="#E9C0A1" opacity="1.000000" stroke="none" 
	d="
M24.378143,82.635727 
	C24.676317,81.505692 24.963621,80.947060 25.678711,80.177658 
	C26.067551,79.468750 26.028603,78.970619 25.989653,78.472496 
	C25.993999,78.255653 26.000885,78.038895 26.023857,77.669556 
	C26.889194,76.409714 27.592266,75.129311 28.629793,74.238411 
	C29.977905,73.080826 31.897209,71.156258 33.027714,71.476784 
	C35.351448,72.135628 37.808495,73.706474 39.212677,75.630363 
	C39.892250,76.561440 38.316628,79.138504 37.369495,80.668739 
	C36.997227,79.917969 37.017529,79.468803 37.246170,78.869522 
	C37.340435,78.132271 37.226360,77.545128 37.090599,76.661240 
	C36.734135,75.901825 36.399361,75.439156 36.064583,74.976479 
	C32.592266,72.347137 30.482019,73.391716 28.985537,77.870377 
	C28.223637,80.150589 26.527386,82.118599 24.923607,84.277618 
	C24.518238,83.954041 24.442757,83.580582 24.378143,82.635727 
z"/>
<path fill="#757575" opacity="1.000000" stroke="none" 
	d="
M123.562042,97.006973 
	C122.816277,97.576591 121.694710,98.301994 120.166702,99.036873 
	C117.816681,94.400566 115.873108,89.754784 113.929527,85.109009 
	C114.387375,84.714729 114.845215,84.320450 115.303062,83.926170 
	C116.306015,84.955688 117.597160,85.828949 118.256447,87.044815 
	C120.043053,90.339752 121.561470,93.780083 123.562042,97.006973 
z"/>
<path fill="#C65E5B" opacity="1.000000" stroke="none" 
	d="
M29.122561,102.042847 
	C28.717279,101.209213 28.311998,100.375572 27.494600,98.694244 
	C31.675686,100.437569 37.745457,96.476097 37.810619,103.958824 
	C37.826195,105.747551 35.760235,108.688423 34.129547,109.118126 
	C30.873928,109.976021 28.463120,108.055168 28.911510,104.277283 
	C29.969088,104.782494 30.295300,105.551926 30.832796,105.751068 
	C32.084167,106.214684 33.530300,106.817223 34.714817,106.550896 
	C35.441620,106.387482 36.527275,104.280998 36.234470,103.819664 
	C35.506310,102.672363 34.190430,101.550362 32.902061,101.211960 
	C31.791582,100.920288 30.393492,101.723633 29.122561,102.042847 
z"/>
<path fill="#DE6B32" opacity="1.000000" stroke="none" 
	d="
M37.037827,79.019630 
	C37.017529,79.468803 36.997227,79.917969 37.008881,80.703133 
	C36.744545,81.181755 36.439564,81.302429 35.883980,81.404327 
	C34.018448,81.180573 32.394833,80.953636 30.495070,80.688103 
	C30.656218,77.427132 31.918413,75.362595 35.684517,74.993057 
	C36.399361,75.439156 36.734135,75.901825 36.844410,76.801926 
	C36.759216,77.832779 36.898521,78.426201 37.037827,79.019630 
z"/>
<path fill="#CB2928" opacity="1.000000" stroke="none" 
	d="
M29.078568,102.364273 
	C30.393492,101.723633 31.791582,100.920288 32.902061,101.211960 
	C34.190430,101.550362 35.506310,102.672363 36.234470,103.819664 
	C36.527275,104.280998 35.441620,106.387482 34.714817,106.550896 
	C33.530300,106.817223 32.084167,106.214684 30.832796,105.751068 
	C30.295300,105.551926 29.969088,104.782494 29.217518,104.121918 
	C28.936964,103.543007 28.985771,103.114349 29.078568,102.364273 
z"/>
<path fill="#757575" opacity="1.000000" stroke="none" 
	d="
M212.846771,108.725113 
	C213.157562,109.115288 213.468353,109.505455 214.102692,110.094337 
	C211.489517,110.901871 208.552780,111.510689 205.335785,111.913506 
	C205.321304,111.274261 205.587112,110.841019 206.306824,110.073746 
	C208.789413,109.401512 210.818085,109.063309 212.846771,108.725113 
z"/>
<path fill="#E8E8E8" opacity="1.000000" stroke="none" 
	d="
M215.555374,110.054436 
	C218.384003,105.058693 217.960373,103.134956 213.181183,101.161987 
	C214.947815,101.446434 217.971558,101.623154 218.479584,102.845490 
	C219.548828,105.418053 219.847778,108.748833 215.555374,110.054436 
z"/>
<path fill="#E8E8E8" opacity="1.000000" stroke="none" 
	d="
M12.531708,105.005112 
	C11.521723,103.907997 10.871651,102.782799 10.201354,101.324768 
	C11.589764,101.019791 12.998398,101.047630 14.829859,101.101852 
	C14.967284,102.148254 14.681882,103.168282 14.362517,104.511429 
	C13.849576,104.882050 13.370598,104.929543 12.531708,105.005112 
z"/>
<path fill="#DA7F45" opacity="1.000000" stroke="none" 
	d="
M15.103542,93.188744 
	C15.706115,93.259209 16.381176,93.616081 17.057930,94.267990 
	C16.431759,94.200394 15.803895,93.837769 15.103542,93.188744 
z"/>
<path fill="#E9C0A1" opacity="1.000000" stroke="none" 
	d="
M23.953142,84.422348 
	C23.627737,84.990677 23.007942,85.442810 22.089939,85.789154 
	C22.414070,85.224289 23.036411,84.765221 23.953142,84.422348 
z"/>
<path fill="#E9C0A1" opacity="1.000000" stroke="none" 
	d="
M31.236435,83.982735 
	C31.538475,83.425690 32.121754,82.903435 33.000214,82.551529 
	C32.702824,83.153755 32.110245,83.585632 31.236435,83.982735 
z"/>
<path fill="#DE6B32" opacity="1.000000" stroke="none" 
	d="
M10.039404,82.040649 
	C7.883719,81.024307 5.688833,79.967529 3.493948,78.910744 
	C4.487714,77.383362 5.255351,75.571594 6.608222,74.495811 
	C7.033441,74.157692 9.641232,75.512253 10.149156,76.604172 
	C10.745401,77.885971 10.142162,79.725716 10.070226,81.700851 
	C10.081304,82.078232 10.000203,82.000206 10.039404,82.040649 
z"/>
<path fill="#F3F3F3" opacity="1.000000" stroke="none" 
	d="
M182.115570,98.881218 
	C181.478836,95.718620 180.296326,92.570076 181.022903,89.951195 
	C182.009491,86.395172 185.639008,86.319054 188.928879,86.735062 
	C192.638992,87.204208 191.915039,90.023994 191.940552,92.401138 
	C192.033829,101.094215 189.874619,102.608688 182.115570,98.881218 
z"/>
<path fill="#E8E8E8" opacity="1.000000" stroke="none" 
	d="
M170.188156,90.036819 
	C166.594040,90.952751 163.083023,91.459091 159.572021,91.965424 
	C159.285919,91.221497 158.999802,90.477570 158.713699,89.733643 
	C160.693832,88.572281 162.648041,86.561478 164.661743,86.500008 
	C166.498047,86.443947 168.398880,88.501335 170.188156,90.036819 
z"/>
<path fill="#E8E8E8" opacity="1.000000" stroke="none" 
	d="
M233.825607,87.301147 
	C235.539993,89.898170 235.825851,91.698112 232.168243,91.649307 
	C229.544815,91.614304 226.920547,91.642494 224.207809,91.642494 
	C225.270065,86.652542 227.669647,85.574081 233.825607,87.301147 
z"/>
<path fill="#F3F3F3" opacity="1.000000" stroke="none" 
	d="
M104.713066,100.294724 
	C101.911797,99.330368 98.758232,98.863647 97.304939,97.041122 
	C94.836746,93.945824 96.439018,88.904396 99.704277,87.161118 
	C103.199432,85.295090 106.238777,86.205048 108.380043,89.331581 
	C110.815407,92.887543 109.272453,97.599205 104.713066,100.294724 
z"/>
<path fill="#FEFEFE" opacity="1.000000" stroke="none" 
	d="
M25.870983,78.862793 
	C26.028603,78.970619 26.067551,79.468750 25.792685,79.994339 
	C25.570017,79.765572 25.661165,79.509331 25.870983,78.862793 
z"/>
<path fill="#E8E8E8" opacity="1.000000" stroke="none" 
	d="
M213.040115,108.441360 
	C210.818085,109.063309 208.789413,109.401512 206.390488,109.833084 
	C204.061676,108.661873 202.103104,107.397285 200.144531,106.132690 
	C202.199860,105.115768 204.173889,103.831421 206.338333,103.173294 
	C207.852051,102.713036 209.636719,102.993744 211.281754,103.145493 
	C215.162704,103.503510 216.064697,105.131363 213.040115,108.441360 
z"/>
<path fill="#DA7F45" opacity="1.000000" stroke="none" 
	d="
M37.246166,78.869522 
	C36.898521,78.426201 36.759216,77.832779 36.866096,77.098663 
	C37.226360,77.545128 37.340435,78.132271 37.246166,78.869522 
z"/>
</svg>